<svg class="fill-red-400" xmlns="http://www.w3.org/2000/svg" enable-background="new 0 0 2500 2500" viewBox="302.669 414.313 1894.442 1672.437"><polygon fill="#e5e7e5" fill-rule="evenodd" points="388.78 1502.48 1249.89 994.22 2111 1502.48 1249.89 2010.73" clip-rule="evenodd"/><polygon fill="#c9e3f6" fill-rule="evenodd" points="388.78 1424.18 388.78 1388.5 1249.89 1896.76 2111 1388.5 2111 1424.18 1249.89 1932.44" clip-rule="evenodd"/><polygon fill="#e4f3fc" fill-rule="evenodd" points="388.78 1388.5 1249.89 880.24 2111 1388.5 1249.89 1896.76" clip-rule="evenodd"/><path fill="#fff" fill-rule="evenodd" d="M488.8,1392.13c-2-1.18-2.67-3.77-1.49-5.77c1.18-2,3.77-2.67,5.77-1.49l7.26,4.28    c2,1.18,2.67,3.77,1.49,5.77c-1.18,2-3.77,2.67-5.77,1.49L488.8,1392.13L488.8,1392.13z M501.59,1387.11l7.26-4.28    c2-1.18,2.67-3.77,1.49-5.77c-1.18-2-3.77-2.67-5.77-1.49l-7.26,4.29c-2,1.18-2.67,3.77-1.49,5.77    C497,1387.63,499.58,1388.29,501.59,1387.11L501.59,1387.11z M530.63,1369.97c-2,1.18-4.59,0.52-5.77-1.49    c-1.18-2-0.52-4.59,1.49-5.77l7.26-4.29c2-1.18,4.59-0.52,5.77,1.49c1.18,2,0.52,4.59-1.49,5.77L530.63,1369.97L530.63,1369.97z     M559.67,1352.82c-2,1.18-4.59,0.52-5.77-1.49c-1.18-2-0.52-4.59,1.49-5.77l7.26-4.29c2-1.18,4.59-0.52,5.77,1.49    c1.18,2,0.52,4.59-1.49,5.77L559.67,1352.82L559.67,1352.82z M588.71,1335.68c-2,1.18-4.59,0.52-5.77-1.49    c-1.18-2-0.52-4.59,1.49-5.77l7.26-4.29c2-1.18,4.59-0.52,5.77,1.49c1.18,2,0.52,4.59-1.49,5.77L588.71,1335.68L588.71,1335.68z     M617.75,1318.54c-2,1.18-4.59,0.52-5.77-1.49c-1.18-2-0.52-4.59,1.49-5.77l7.26-4.29c2-1.18,4.59-0.52,5.77,1.49    c1.18,2,0.52,4.59-1.49,5.77L617.75,1318.54L617.75,1318.54z M646.78,1301.39c-2,1.18-4.59,0.52-5.77-1.49    c-1.18-2-0.52-4.59,1.49-5.77l7.26-4.29c2-1.18,4.59-0.52,5.77,1.49c1.18,2,0.52,4.59-1.49,5.77L646.78,1301.39L646.78,1301.39z     M675.82,1284.25c-2,1.18-4.59,0.52-5.77-1.49c-1.18-2-0.52-4.59,1.49-5.77l7.26-4.29c2-1.18,4.59-0.52,5.77,1.49    c1.18,2,0.52,4.59-1.49,5.77L675.82,1284.25L675.82,1284.25z M704.86,1267.11c-2,1.18-4.59,0.52-5.77-1.49    c-1.18-2-0.52-4.59,1.49-5.77l7.26-4.29c2-1.18,4.59-0.52,5.77,1.49c1.18,2,0.52,4.59-1.49,5.77L704.86,1267.11L704.86,1267.11z     M733.9,1249.97c-2,1.18-4.59,0.52-5.77-1.49c-1.18-2-0.52-4.59,1.49-5.77l7.26-4.29c2-1.18,4.59-0.52,5.77,1.49    c1.18,2,0.52,4.59-1.49,5.77L733.9,1249.97L733.9,1249.97z M762.94,1232.82c-2,1.18-4.59,0.52-5.77-1.49    c-1.18-2-0.52-4.59,1.49-5.77l7.26-4.29c2-1.18,4.59-0.52,5.77,1.49c1.18,2,0.52,4.59-1.49,5.77L762.94,1232.82L762.94,1232.82z     M791.98,1215.68c-2,1.18-4.59,0.52-5.77-1.49c-1.18-2-0.52-4.59,1.49-5.77l7.26-4.29c2-1.18,4.59-0.52,5.77,1.49    c1.18,2,0.52,4.59-1.49,5.77L791.98,1215.68L791.98,1215.68z M821.02,1198.54c-2,1.18-4.59,0.52-5.77-1.49    c-1.18-2-0.52-4.59,1.49-5.77l7.26-4.29c2-1.18,4.59-0.52,5.77,1.49c1.18,2,0.52,4.59-1.49,5.77L821.02,1198.54L821.02,1198.54z     M850.06,1181.39c-2,1.18-4.59,0.52-5.77-1.49c-1.18-2-0.52-4.59,1.49-5.77l7.26-4.29c2-1.18,4.59-0.52,5.77,1.49    c1.18,2,0.52,4.59-1.49,5.77L850.06,1181.39L850.06,1181.39z M879.1,1164.25c-2,1.18-4.59,0.52-5.77-1.49    c-1.18-2-0.52-4.59,1.49-5.77l7.26-4.28c2-1.18,4.59-0.52,5.77,1.49c1.18,2,0.52,4.59-1.49,5.77L879.1,1164.25L879.1,1164.25z     M908.14,1147.11c-2,1.18-4.59,0.52-5.77-1.49c-1.18-2-0.51-4.59,1.49-5.77l7.26-4.28c2-1.18,4.59-0.52,5.77,1.49    c1.18,2,0.52,4.59-1.49,5.77L908.14,1147.11L908.14,1147.11z M937.18,1129.98c-2,1.18-4.59,0.52-5.77-1.49    c-1.18-2-0.52-4.59,1.49-5.77l7.26-4.28c2-1.18,4.59-0.52,5.77,1.49c1.18,2,0.52,4.59-1.49,5.77L937.18,1129.98L937.18,1129.98z     M966.22,1112.84c-2,1.18-4.59,0.52-5.77-1.49s-0.52-4.59,1.49-5.77l7.26-4.28c2-1.18,4.59-0.52,5.77,1.49    c1.18,2,0.52,4.59-1.49,5.77L966.22,1112.84L966.22,1112.84z M995.26,1095.7c-2,1.18-4.59,0.52-5.77-1.49    c-1.18-2-0.52-4.59,1.49-5.77l7.26-4.28c2-1.18,4.59-0.52,5.77,1.49c1.18,2,0.52,4.59-1.49,5.77L995.26,1095.7L995.26,1095.7z     M1024.3,1078.57c-2,1.18-4.59,0.52-5.77-1.49c-1.18-2-0.52-4.59,1.49-5.77l7.26-4.28c2-1.18,4.59-0.52,5.77,1.49    c1.18,2,0.52,4.59-1.49,5.77L1024.3,1078.57L1024.3,1078.57z M1053.34,1061.43c-2,1.18-4.59,0.52-5.77-1.49    c-1.18-2-0.51-4.59,1.49-5.77l7.26-4.28c2-1.18,4.59-0.52,5.77,1.49c1.18,2,0.52,4.59-1.49,5.77L1053.34,1061.43L1053.34,1061.43z     M1082.38,1044.29c-2,1.18-4.59,0.52-5.77-1.49c-1.18-2-0.52-4.59,1.49-5.77l7.26-4.28c2-1.18,4.59-0.52,5.77,1.49    c1.18,2,0.52,4.59-1.49,5.77L1082.38,1044.29L1082.38,1044.29z M1111.42,1027.16c-2,1.18-4.59,0.52-5.77-1.49    c-1.18-2-0.52-4.59,1.49-5.77l7.26-4.28c2-1.18,4.59-0.52,5.77,1.49c1.18,2,0.52,4.59-1.49,5.77L1111.42,1027.16L1111.42,1027.16z     M1140.46,1010.02c-2,1.18-4.59,0.52-5.77-1.49s-0.52-4.59,1.49-5.77l7.26-4.28c2-1.18,4.59-0.52,5.77,1.49    c1.18,2,0.52,4.59-1.49,5.77L1140.46,1010.02L1140.46,1010.02z M1169.49,992.88c-2,1.18-4.59,0.52-5.77-1.49    c-1.18-2-0.52-4.59,1.49-5.77l7.26-4.28c2-1.18,4.59-0.52,5.77,1.49c1.18,2,0.52,4.59-1.49,5.77L1169.49,992.88L1169.49,992.88z     M1198.53,975.75c-2,1.18-4.59,0.52-5.77-1.49c-1.18-2-0.52-4.59,1.49-5.77l7.26-4.28c2-1.18,4.59-0.52,5.77,1.49    c1.18,2,0.52,4.59-1.49,5.77L1198.53,975.75L1198.53,975.75z M1227.56,958.61c-2,1.18-4.59,0.52-5.77-1.49s-0.52-4.59,1.49-5.77    l7.26-4.28c2-1.18,4.59-0.52,5.77,1.49c1.18,2,0.52,4.59-1.49,5.77L1227.56,958.61L1227.56,958.61z M1252.31,946.87    c-2-1.18-2.67-3.77-1.49-5.77c1.18-2,3.77-2.67,5.77-1.49l7.26,4.29c2,1.18,2.67,3.77,1.49,5.77c-1.18,2-3.77,2.67-5.77,1.49    L1252.31,946.87L1252.31,946.87z M1281.35,964.01c-2-1.18-2.67-3.77-1.49-5.77c1.18-2,3.77-2.67,5.77-1.49l7.26,4.29    c2,1.18,2.67,3.77,1.49,5.77s-3.77,2.67-5.77,1.49L1281.35,964.01L1281.35,964.01z M1310.39,981.15c-2-1.18-2.67-3.77-1.49-5.77    c1.18-2,3.77-2.67,5.77-1.49l7.26,4.29c2,1.18,2.67,3.77,1.49,5.77c-1.18,2-3.77,2.67-5.77,1.49L1310.39,981.15L1310.39,981.15z     M1339.43,998.3c-2-1.18-2.67-3.77-1.49-5.77s3.77-2.67,5.77-1.49l7.26,4.29c2,1.18,2.67,3.77,1.49,5.77    c-1.18,2-3.77,2.67-5.77,1.49L1339.43,998.3L1339.43,998.3z M1368.47,1015.44c-2-1.18-2.67-3.77-1.49-5.77s3.77-2.67,5.77-1.49    l7.26,4.29c2,1.18,2.67,3.77,1.49,5.77c-1.18,2-3.77,2.67-5.77,1.49L1368.47,1015.44L1368.47,1015.44z M1397.51,1032.58    c-2-1.18-2.67-3.77-1.49-5.77c1.18-2,3.77-2.67,5.77-1.49l7.26,4.29c2,1.18,2.67,3.77,1.49,5.77c-1.18,2-3.77,2.67-5.77,1.49    L1397.51,1032.58L1397.51,1032.58z M1426.55,1049.73c-2-1.18-2.67-3.77-1.49-5.77c1.18-2,3.77-2.67,5.77-1.49l7.26,4.29    c2,1.18,2.67,3.77,1.49,5.77c-1.18,2-3.77,2.67-5.77,1.49L1426.55,1049.73L1426.55,1049.73z M1455.59,1066.87    c-2-1.18-2.67-3.77-1.49-5.77c1.18-2,3.77-2.67,5.77-1.49l7.26,4.29c2,1.18,2.67,3.77,1.49,5.77s-3.77,2.67-5.77,1.49    L1455.59,1066.87L1455.59,1066.87z M1484.63,1084.01c-2-1.18-2.67-3.77-1.49-5.77c1.18-2,3.77-2.67,5.77-1.49l7.26,4.29    c2,1.18,2.67,3.77,1.49,5.77c-1.18,2-3.77,2.67-5.77,1.49L1484.63,1084.01L1484.63,1084.01z M1513.67,1101.16    c-2-1.18-2.67-3.77-1.49-5.77c1.18-2,3.77-2.67,5.77-1.49l7.26,4.29c2,1.18,2.67,3.77,1.49,5.77c-1.18,2-3.77,2.67-5.77,1.49    L1513.67,1101.16L1513.67,1101.16z M1542.71,1118.3c-2-1.18-2.67-3.77-1.49-5.77c1.18-2,3.77-2.67,5.77-1.49l7.26,4.29    c2,1.18,2.67,3.77,1.49,5.77s-3.77,2.67-5.77,1.49L1542.71,1118.3L1542.71,1118.3z M1571.75,1135.44c-2-1.18-2.67-3.77-1.49-5.77    c1.18-2,3.77-2.67,5.77-1.49l7.26,4.28c2,1.18,2.67,3.77,1.49,5.77c-1.18,2-3.77,2.67-5.77,1.49L1571.75,1135.44L1571.75,1135.44z     M1600.79,1152.59c-2-1.18-2.67-3.77-1.49-5.77c1.18-2,3.77-2.67,5.77-1.49l7.26,4.29c2,1.18,2.67,3.77,1.49,5.77    c-1.18,2-3.77,2.67-5.77,1.49L1600.79,1152.59L1600.79,1152.59z M1629.83,1169.73c-2-1.18-2.67-3.77-1.49-5.77    c1.18-2,3.77-2.67,5.77-1.49l7.26,4.28c2,1.18,2.67,3.77,1.49,5.77c-1.18,2-3.77,2.67-5.77,1.49L1629.83,1169.73L1629.83,1169.73z     M1658.86,1186.86c-2-1.18-2.67-3.77-1.49-5.77c1.18-2,3.77-2.67,5.77-1.49l7.26,4.28c2,1.18,2.67,3.77,1.49,5.77    s-3.77,2.67-5.77,1.49L1658.86,1186.86L1658.86,1186.86z M1687.9,1204c-2-1.18-2.67-3.77-1.49-5.77c1.18-2,3.77-2.67,5.77-1.49    l7.26,4.28c2,1.18,2.67,3.77,1.49,5.77c-1.18,2-3.77,2.67-5.77,1.49L1687.9,1204L1687.9,1204z M1716.94,1221.14    c-2-1.18-2.67-3.77-1.49-5.77c1.18-2,3.77-2.67,5.77-1.49l7.26,4.28c2,1.18,2.67,3.77,1.49,5.77c-1.18,2-3.77,2.67-5.77,1.49    L1716.94,1221.14L1716.94,1221.14z M1745.98,1238.27c-2-1.18-2.67-3.77-1.49-5.77c1.18-2,3.77-2.67,5.77-1.49l7.26,4.28    c2,1.18,2.67,3.77,1.49,5.77c-1.18,2-3.77,2.67-5.77,1.49L1745.98,1238.27L1745.98,1238.27z M1775.02,1255.41    c-2-1.18-2.67-3.77-1.49-5.77c1.18-2,3.77-2.67,5.77-1.49l7.26,4.28c2,1.18,2.67,3.77,1.49,5.77c-1.18,2-3.77,2.67-5.77,1.49    L1775.02,1255.41L1775.02,1255.41z M1804.06,1272.54c-2-1.18-2.67-3.77-1.49-5.77c1.18-2,3.77-2.67,5.77-1.49l7.26,4.28    c2,1.18,2.67,3.77,1.49,5.77c-1.18,2-3.77,2.67-5.77,1.49L1804.06,1272.54L1804.06,1272.54z M1833.1,1289.68    c-2-1.18-2.67-3.77-1.49-5.77c1.18-2,3.77-2.67,5.77-1.49l7.26,4.28c2,1.18,2.67,3.77,1.49,5.77c-1.18,2-3.77,2.67-5.77,1.49    L1833.1,1289.68L1833.1,1289.68z M1862.14,1306.82c-2-1.18-2.67-3.77-1.49-5.77s3.77-2.67,5.77-1.49l7.26,4.28    c2,1.18,2.67,3.77,1.49,5.77c-1.18,2-3.77,2.67-5.77,1.49L1862.14,1306.82L1862.14,1306.82z M1891.18,1323.95    c-2-1.18-2.67-3.77-1.49-5.77c1.18-2,3.77-2.67,5.77-1.49l7.26,4.28c2,1.18,2.67,3.77,1.49,5.77c-1.18,2-3.77,2.67-5.77,1.49    L1891.18,1323.95L1891.18,1323.95z M1920.22,1341.09c-2-1.18-2.67-3.77-1.49-5.77c1.18-2,3.77-2.67,5.77-1.49l7.26,4.28    c2,1.18,2.67,3.77,1.49,5.77c-1.18,2-3.77,2.67-5.77,1.49L1920.22,1341.09L1920.22,1341.09z M1949.25,1358.23    c-2-1.18-2.67-3.77-1.49-5.77c1.18-2,3.77-2.67,5.77-1.49l7.26,4.28c2,1.18,2.67,3.77,1.49,5.77c-1.18,2-3.77,2.67-5.77,1.49    L1949.25,1358.23L1949.25,1358.23z M1978.29,1375.36c-2-1.18-2.67-3.77-1.49-5.77c1.18-2,3.77-2.67,5.77-1.49l7.26,4.28    c2,1.18,2.67,3.77,1.49,5.77c-1.18,2-3.77,2.67-5.77,1.49L1978.29,1375.36L1978.29,1375.36z M2006.07,1385.24    c2-1.18,4.59-0.52,5.77,1.49c1.18,2,0.52,4.59-1.49,5.77l-7.26,4.29c-2,1.18-4.59,0.52-5.77-1.49s-0.52-4.59,1.49-5.77    L2006.07,1385.24L2006.07,1385.24z M1977.03,1402.38c2-1.18,4.59-0.52,5.77,1.49c1.18,2,0.52,4.59-1.49,5.77l-7.26,4.28    c-2,1.18-4.59,0.52-5.77-1.49c-1.18-2-0.52-4.59,1.49-5.77L1977.03,1402.38L1977.03,1402.38z M1947.99,1419.53    c2-1.18,4.59-0.52,5.77,1.49c1.18,2,0.52,4.59-1.49,5.77l-7.26,4.29c-2,1.18-4.59,0.52-5.77-1.49c-1.18-2-0.52-4.59,1.49-5.77    L1947.99,1419.53L1947.99,1419.53z M1918.96,1436.67c2-1.18,4.59-0.52,5.77,1.49c1.18,2,0.52,4.59-1.49,5.77l-7.26,4.29    c-2,1.18-4.59,0.52-5.77-1.49c-1.18-2-0.52-4.59,1.49-5.77L1918.96,1436.67L1918.96,1436.67z M1889.92,1453.81    c2-1.18,4.59-0.52,5.77,1.49c1.18,2,0.52,4.59-1.49,5.77l-7.26,4.28c-2,1.18-4.59,0.52-5.77-1.49c-1.18-2-0.52-4.59,1.49-5.77    L1889.92,1453.81L1889.92,1453.81z M1860.88,1470.96c2-1.18,4.59-0.52,5.77,1.49c1.18,2,0.52,4.59-1.49,5.77l-7.26,4.29    c-2,1.18-4.59,0.52-5.77-1.49c-1.18-2-0.52-4.59,1.49-5.77L1860.88,1470.96L1860.88,1470.96z M1831.84,1488.1    c2-1.18,4.59-0.52,5.77,1.49c1.18,2,0.52,4.59-1.49,5.77l-7.26,4.29c-2,1.18-4.59,0.52-5.77-1.49c-1.18-2-0.52-4.59,1.49-5.77    L1831.84,1488.1L1831.84,1488.1z M1802.8,1505.24c2-1.18,4.59-0.52,5.77,1.49c1.18,2,0.52,4.59-1.49,5.77l-7.26,4.28    c-2,1.18-4.59,0.52-5.77-1.49c-1.18-2-0.52-4.59,1.49-5.77L1802.8,1505.24L1802.8,1505.24z M1773.76,1522.39    c2-1.18,4.59-0.52,5.77,1.49c1.18,2,0.52,4.59-1.49,5.77l-7.26,4.29c-2,1.18-4.59,0.52-5.77-1.49c-1.18-2-0.52-4.59,1.49-5.77    L1773.76,1522.39L1773.76,1522.39z M1744.72,1539.53c2-1.18,4.59-0.52,5.77,1.49c1.18,2,0.52,4.59-1.49,5.77l-7.26,4.29    c-2,1.18-4.59,0.52-5.77-1.49c-1.18-2-0.52-4.59,1.49-5.77L1744.72,1539.53L1744.72,1539.53z M1715.68,1556.67    c2-1.18,4.59-0.52,5.77,1.49c1.18,2,0.52,4.59-1.49,5.77l-7.26,4.28c-2,1.18-4.59,0.52-5.77-1.49c-1.18-2-0.52-4.59,1.49-5.77    L1715.68,1556.67L1715.68,1556.67z M1686.64,1573.82c2-1.18,4.59-0.52,5.77,1.49c1.18,2,0.52,4.59-1.49,5.77l-7.26,4.29    c-2,1.18-4.59,0.52-5.77-1.49c-1.18-2-0.52-4.59,1.49-5.77L1686.64,1573.82L1686.64,1573.82z M1657.6,1590.96    c2-1.18,4.59-0.52,5.77,1.49s0.52,4.59-1.49,5.77l-7.26,4.29c-2,1.18-4.59,0.52-5.77-1.49c-1.18-2-0.52-4.59,1.49-5.77    L1657.6,1590.96L1657.6,1590.96z M1628.56,1608.1c2-1.18,4.59-0.52,5.77,1.49c1.18,2,0.52,4.59-1.49,5.77l-7.26,4.28    c-2,1.18-4.59,0.52-5.77-1.49c-1.18-2-0.52-4.59,1.49-5.77L1628.56,1608.1L1628.56,1608.1z M1599.52,1625.24    c2-1.18,4.59-0.52,5.77,1.49s0.52,4.59-1.49,5.77l-7.26,4.28c-2,1.18-4.59,0.52-5.77-1.49s-0.52-4.59,1.49-5.77L1599.52,1625.24    L1599.52,1625.24z M1570.48,1642.38c2-1.18,4.59-0.52,5.77,1.49c1.18,2,0.52,4.59-1.49,5.77l-7.26,4.28    c-2,1.18-4.59,0.52-5.77-1.49c-1.18-2-0.52-4.59,1.49-5.77L1570.48,1642.38L1570.48,1642.38z M1541.44,1659.51    c2-1.18,4.59-0.52,5.77,1.49c1.18,2,0.52,4.59-1.49,5.77l-7.26,4.28c-2,1.18-4.59,0.52-5.77-1.49c-1.18-2-0.52-4.59,1.49-5.77    L1541.44,1659.51L1541.44,1659.51z M1512.4,1676.65c2-1.18,4.59-0.52,5.77,1.49c1.18,2,0.52,4.59-1.49,5.77l-7.26,4.28    c-2,1.18-4.59,0.52-5.77-1.49c-1.18-2-0.52-4.59,1.49-5.77L1512.4,1676.65L1512.4,1676.65z M1483.36,1693.79    c2-1.18,4.59-0.52,5.77,1.49c1.18,2,0.52,4.59-1.49,5.77l-7.26,4.28c-2,1.18-4.59,0.52-5.77-1.49s-0.52-4.59,1.49-5.77    L1483.36,1693.79L1483.36,1693.79z M1454.32,1710.92c2-1.18,4.59-0.52,5.77,1.49c1.18,2,0.52,4.59-1.49,5.77l-7.26,4.28    c-2,1.18-4.59,0.52-5.77-1.49c-1.18-2-0.52-4.59,1.49-5.77L1454.32,1710.92L1454.32,1710.92z M1425.28,1728.06    c2-1.18,4.59-0.52,5.77,1.49c1.18,2,0.52,4.59-1.49,5.77l-7.26,4.28c-2,1.18-4.59,0.52-5.77-1.49c-1.18-2-0.52-4.59,1.49-5.77    L1425.28,1728.06L1425.28,1728.06z M1396.24,1745.19c2-1.18,4.59-0.52,5.77,1.49s0.52,4.59-1.49,5.77l-7.26,4.28    c-2,1.18-4.59,0.52-5.77-1.49s-0.52-4.59,1.49-5.77L1396.24,1745.19L1396.24,1745.19z M1367.21,1762.33    c2-1.18,4.59-0.52,5.77,1.49c1.18,2,0.52,4.59-1.49,5.77l-7.26,4.28c-2,1.18-4.59,0.52-5.77-1.49c-1.18-2-0.52-4.59,1.49-5.77    L1367.21,1762.33L1367.21,1762.33z M1338.17,1779.47c2-1.18,4.59-0.52,5.77,1.49c1.18,2,0.52,4.59-1.49,5.77l-7.26,4.28    c-2,1.18-4.59,0.52-5.77-1.49c-1.18-2-0.52-4.59,1.49-5.77L1338.17,1779.47L1338.17,1779.47z M1309.13,1796.6    c2-1.18,4.59-0.52,5.77,1.49c1.18,2,0.52,4.59-1.49,5.77l-7.26,4.28c-2,1.18-4.59,0.52-5.77-1.49c-1.18-2-0.52-4.59,1.49-5.77    L1309.13,1796.6L1309.13,1796.6z M1280.1,1813.74c2-1.18,4.59-0.52,5.77,1.49c1.18,2,0.52,4.59-1.49,5.77l-7.26,4.28    c-2,1.18-4.59,0.52-5.77-1.49c-1.18-2-0.52-4.59,1.49-5.77L1280.1,1813.74L1280.1,1813.74z M1251.06,1830.88    c2-1.18,4.59-0.52,5.77,1.49c1.18,2,0.52,4.59-1.49,5.77l-3.27,1.93c-1.28,0.78-2.95,0.85-4.33,0.03l-3.94-2.33    c-2-1.18-2.67-3.77-1.49-5.77c1.18-2,3.77-2.67,5.77-1.49l1.8,1.06L1251.06,1830.88L1251.06,1830.88z M1255.35,1838.13l-1.28-2.17    v0.01L1255.35,1838.13L1255.35,1838.13z M1226.31,1817.65c2,1.18,2.67,3.77,1.49,5.77c-1.18,2-3.77,2.67-5.77,1.49l-7.26-4.29    c-2-1.18-2.67-3.77-1.49-5.77c1.18-2,3.77-2.67,5.77-1.49L1226.31,1817.65L1226.31,1817.65z M1197.27,1800.51    c2,1.18,2.67,3.77,1.49,5.77c-1.18,2-3.77,2.67-5.77,1.49l-7.26-4.28c-2-1.18-2.67-3.77-1.49-5.77c1.18-2,3.77-2.67,5.77-1.49    L1197.27,1800.51L1197.27,1800.51z M1168.23,1783.37c2,1.18,2.67,3.77,1.49,5.77c-1.18,2-3.77,2.67-5.77,1.49l-7.26-4.29    c-2-1.18-2.67-3.77-1.49-5.77c1.18-2,3.77-2.67,5.77-1.49L1168.23,1783.37L1168.23,1783.37z M1139.19,1766.22    c2,1.18,2.67,3.77,1.49,5.77c-1.18,2-3.77,2.67-5.77,1.49l-7.26-4.29c-2-1.18-2.67-3.77-1.49-5.77c1.18-2,3.77-2.67,5.77-1.49    L1139.19,1766.22L1139.19,1766.22z M1110.15,1749.08c2,1.18,2.67,3.77,1.49,5.77c-1.18,2-3.77,2.67-5.77,1.49l-7.26-4.28    c-2-1.18-2.67-3.77-1.49-5.77c1.18-2,3.77-2.67,5.77-1.49L1110.15,1749.08L1110.15,1749.08z M1081.11,1731.94    c2,1.18,2.67,3.77,1.49,5.77c-1.18,2-3.77,2.67-5.77,1.49l-7.26-4.29c-2-1.18-2.67-3.77-1.49-5.77c1.18-2,3.77-2.67,5.77-1.49    L1081.11,1731.94L1081.11,1731.94z M1052.07,1714.79c2,1.18,2.67,3.77,1.49,5.77c-1.18,2-3.77,2.67-5.77,1.49l-7.26-4.29    c-2-1.18-2.67-3.77-1.49-5.77c1.18-2,3.77-2.67,5.77-1.49L1052.07,1714.79L1052.07,1714.79z M1023.03,1697.65    c2,1.18,2.67,3.77,1.49,5.77c-1.18,2-3.77,2.67-5.77,1.49l-7.26-4.28c-2-1.18-2.67-3.77-1.49-5.77c1.18-2,3.77-2.67,5.77-1.49    L1023.03,1697.65L1023.03,1697.65z M993.99,1680.51c2,1.18,2.67,3.77,1.49,5.77c-1.18,2-3.77,2.67-5.77,1.49l-7.26-4.29    c-2-1.18-2.67-3.77-1.49-5.77c1.18-2,3.77-2.67,5.77-1.49L993.99,1680.51L993.99,1680.51z M964.95,1663.36    c2,1.18,2.67,3.77,1.49,5.77c-1.18,2-3.77,2.67-5.77,1.49l-7.26-4.29c-2-1.18-2.67-3.77-1.49-5.77c1.18-2,3.77-2.67,5.77-1.49    L964.95,1663.36L964.95,1663.36z M935.91,1646.22c2,1.18,2.67,3.77,1.49,5.77c-1.18,2-3.77,2.67-5.77,1.49l-7.26-4.28    c-2-1.18-2.67-3.77-1.49-5.77c1.18-2,3.77-2.67,5.77-1.49L935.91,1646.22L935.91,1646.22z M906.87,1629.08    c2,1.18,2.67,3.77,1.49,5.77c-1.18,2-3.77,2.67-5.77,1.49l-7.26-4.29c-2-1.18-2.67-3.77-1.49-5.77c1.18-2,3.77-2.67,5.77-1.49    L906.87,1629.08L906.87,1629.08z M877.83,1611.93c2,1.18,2.67,3.77,1.49,5.77c-1.18,2-3.77,2.67-5.77,1.49l-7.26-4.29    c-2-1.18-2.67-3.77-1.49-5.77c1.18-2,3.77-2.67,5.77-1.49L877.83,1611.93L877.83,1611.93z M848.79,1594.79    c2,1.18,2.67,3.77,1.49,5.77c-1.18,2-3.77,2.67-5.77,1.49l-7.26-4.28c-2-1.18-2.67-3.77-1.49-5.77c1.18-2,3.77-2.67,5.77-1.49    L848.79,1594.79L848.79,1594.79z M819.75,1577.66c2,1.18,2.67,3.77,1.49,5.77c-1.18,2-3.77,2.67-5.77,1.49l-7.26-4.28    c-2-1.18-2.67-3.77-1.49-5.77c1.18-2,3.77-2.67,5.77-1.49L819.75,1577.66L819.75,1577.66z M790.71,1560.52    c2,1.18,2.67,3.77,1.49,5.77c-1.18,2-3.77,2.67-5.77,1.49l-7.26-4.28c-2-1.18-2.67-3.77-1.49-5.77c1.18-2,3.77-2.67,5.77-1.49    L790.71,1560.52L790.71,1560.52z M761.67,1543.38c2,1.18,2.67,3.77,1.49,5.77c-1.18,2-3.77,2.67-5.77,1.49l-7.26-4.28    c-2-1.18-2.67-3.77-1.49-5.77s3.77-2.67,5.77-1.49L761.67,1543.38L761.67,1543.38z M732.64,1526.25c2,1.18,2.67,3.77,1.49,5.77    c-1.18,2-3.77,2.67-5.77,1.49l-7.26-4.28c-2-1.18-2.67-3.77-1.49-5.77c1.18-2,3.77-2.67,5.77-1.49L732.64,1526.25L732.64,1526.25z     M703.6,1509.11c2,1.18,2.67,3.77,1.49,5.77c-1.18,2-3.77,2.67-5.77,1.49l-7.26-4.28c-2-1.18-2.67-3.77-1.49-5.77    c1.18-2,3.77-2.67,5.77-1.49L703.6,1509.11L703.6,1509.11z M674.56,1491.98c2,1.18,2.67,3.77,1.49,5.77    c-1.18,2-3.77,2.67-5.77,1.49l-7.26-4.28c-2-1.18-2.67-3.77-1.49-5.77c1.18-2,3.77-2.67,5.77-1.49L674.56,1491.98L674.56,1491.98z     M645.52,1474.84c2,1.18,2.67,3.77,1.49,5.77c-1.18,2-3.77,2.67-5.77,1.49l-7.26-4.28c-2-1.18-2.67-3.77-1.49-5.77    c1.18-2,3.77-2.67,5.77-1.49L645.52,1474.84L645.52,1474.84z M616.48,1457.7c2,1.18,2.67,3.77,1.49,5.77    c-1.18,2-3.77,2.67-5.77,1.49l-7.26-4.28c-2-1.18-2.67-3.77-1.49-5.77c1.18-2,3.77-2.67,5.77-1.49L616.48,1457.7L616.48,1457.7z     M587.44,1440.57c2,1.18,2.67,3.77,1.49,5.77c-1.18,2-3.77,2.67-5.77,1.49l-7.26-4.28c-2-1.18-2.67-3.77-1.49-5.77    c1.18-2,3.77-2.67,5.77-1.49L587.44,1440.57L587.44,1440.57z M558.4,1423.43c2,1.18,2.67,3.77,1.49,5.77    c-1.18,2-3.77,2.67-5.77,1.49l-7.26-4.28c-2-1.18-2.67-3.77-1.49-5.77c1.18-2,3.77-2.67,5.77-1.49L558.4,1423.43L558.4,1423.43z     M529.37,1406.29c2,1.18,2.67,3.77,1.49,5.77c-1.18,2-3.77,2.67-5.77,1.49l-7.26-4.28c-2-1.18-2.67-3.77-1.49-5.77    c1.18-2,3.77-2.67,5.77-1.49L529.37,1406.29z" clip-rule="evenodd"/><polygon fill="#daecf8" fill-rule="evenodd" points="1249.89 1896.76 388.78 1388.5 388.78 1424.18 1249.89 1932.44" clip-rule="evenodd"/><polygon fill="#80a8d7" fill-rule="evenodd" points="1362.17 1045.36 1185.34 1147.5 1185.35 1142.2 1362.17 1040.09" clip-rule="evenodd"/><polygon fill="#a1c6e9" fill-rule="evenodd" points="1362.17 1040.09 1185.35 1142.2 1050.54 1064.38 1227.43 962.23" clip-rule="evenodd"/><path fill="#fff" fill-rule="evenodd" d="M1352.59,1039.93l-167.25,96.62l-11.05-16.54l11.05-20.77l167.24-96.66    C1346.98,1022.16,1352.59,1039.93,1352.59,1039.93z" clip-rule="evenodd"/><path fill="#a1c6e9" fill-rule="evenodd" d="M1059.46,1064.23l-4.54,2.67c0,0-8.17-13.65-0.92-37.14c1.02,0.3,7.71,2.3,7.71,2.3l2.88,28.43    L1059.46,1064.23z" clip-rule="evenodd"/><path fill="#daecf8" fill-rule="evenodd" d="M1185.35,1136.55l-125.88-72.32v-42.75l125.88,72.28v9.67C1180.06,1120.02,1185.35,1136.55,1185.35,1136.55z" clip-rule="evenodd"/><polygon fill="#80a8d7" fill-rule="evenodd" points="1362.17 1004.65 1185.35 1106.86 1185.35 1101.53 1362.17 999.39" clip-rule="evenodd"/><polygon fill="#a1c6e9" fill-rule="evenodd" points="1362.17 999.39 1185.35 1101.53 1050.54 1023.68 1227.44 921.55" clip-rule="evenodd"/><path fill="#c9e3f6" fill-rule="evenodd" d="M1087.8,1012.22l120.74-69.85c9.18,5.41,24.06,5.41,33.22,0l85.53,49.37c-9.27,5.39-9.27,13.89-0.02,19.17    l-120.85,69.79c-9.17-5.35-24-5.35-33.2,0l-85.44-49.3C1096.95,1026.04,1096.95,1017.41,1087.8,1012.22z" clip-rule="evenodd"/><polygon fill="#fff" fill-rule="evenodd" points="1225.2 973.35 1219.02 969.78 1223.3 967.31 1240.77 977.38 1236.49 979.86 1230.31 976.29 1212.09 986.81 1206.98 983.86" clip-rule="evenodd"/><path fill="#fff" fill-rule="evenodd" d="M1234.45,988.97l4.8,2.77l1.55-1.49c1.62-1.66,3.66-3.55,5.42-5.24l-0.15-0.07    c-2.93,1.05-6.14,2.23-9.01,3.17L1234.45,988.97L1234.45,988.97z M1247.08,981.04l6.11,3.53l-15.46,17.05l-5.38-3.1l3.97-3.89    l-6.87-3.96l-6.73,2.29l-5.17-2.99L1247.08,981.04z" clip-rule="evenodd"/><path fill="#fff" fill-rule="evenodd" d="M1255.52,998.54l5.07-9.7l5.66,3.27l-2.28,3.58c-0.53,0.9-1.21,1.85-2.01,3.03l0.14,0.07    c1.93-0.52,3.59-0.91,5.07-1.25l6.04-1.42l5.41,3.13l-17.01,3.09l-5.11,10.12l-5.66-3.26l2.35-3.95c0.62-0.99,1.24-1.95,2-3.11    l-0.14-0.07c-1.89,0.5-3.55,0.85-5.21,1.25l-6.69,1.44l-5.45-3.15L1255.52,998.54z" clip-rule="evenodd"/><path fill="#fff" fill-rule="evenodd" d="M1158.05,990.63c7.45-4.3,16.74-3.97,22.43-0.67c2.9,1.67,3.86,3.82,3.83,5.6l-5.94,0.32    c-0.1-1.25-0.55-2.39-2.17-3.33c-3.07-1.77-8.25-1.61-12.77,1c-4.63,2.67-5.18,5.46-1.87,7.37c1.83,1.06,4.21,1.35,6.49,1.31    l-0.49,3.39c-4.04,0.18-7.65-0.6-10.59-2.29C1151.29,1000.03,1150.5,994.99,1158.05,990.63z" clip-rule="evenodd"/><path fill="#fff" fill-rule="evenodd" d="M1192.33,1010.14c4.48-2.59,5.24-5.26,2.17-7.03c-3.08-1.77-7.7-1.33-12.19,1.26    c-4.52,2.61-5.45,5.38-2.37,7.15C1183.01,1013.29,1187.81,1012.74,1192.33,1010.14L1192.33,1010.14z M1177.11,1001.35    c7.35-4.25,15.7-4.29,21.77-0.78c6.07,3.5,5.98,8.34-1.34,12.57c-7.35,4.24-15.92,4.4-21.99,0.9    C1169.49,1010.54,1169.76,1005.59,1177.11,1001.35z" clip-rule="evenodd"/><path fill="#fff" fill-rule="evenodd" d="M1200.59,1023.27c3.83,2.21,8.25,2.61,13.63-0.5c5.38-3.11,4.48-5.54,0.66-7.75l-0.97-0.56l-14.28,8.25    L1200.59,1023.27L1200.59,1023.27z M1212.94,1009.17l6.35,3.67c6.87,3.97,7.87,8.49,0.14,12.95c-7.73,4.46-15.77,4.01-22.37,0.2    l-6.62-3.82L1212.94,1009.17z" clip-rule="evenodd"/><polygon fill="#fff" fill-rule="evenodd" points="1234.87 1021.83 1248.95 1029.96 1244.67 1032.43 1235.66 1027.23 1231.14 1029.83 1238.8 1034.26 1234.56 1036.71 1226.89 1032.29 1221.72 1035.27 1231.07 1040.67 1226.79 1043.15 1212.37 1034.82" clip-rule="evenodd"/><path fill="#80a8d7" fill-rule="evenodd" d="M1054.92,1031.46l130.42,75.4v-5.32l-134.81-77.85c0,0-5.32,20.89,0,45.99l134.8,77.83l0.01-5.3l-130.42-75.3    C1049.97,1046.57,1054.92,1031.46,1054.92,1031.46z" clip-rule="evenodd"/><path fill="#c9e3f6" fill-rule="evenodd" d="M1316.24,1259.12c-22.15,0-44.3-4.89-61.21-14.64c-33.79-19.5-33.79-51.14,0-70.67   c16.9-9.76,39.05-14.63,61.21-14.63c22.15,0,44.3,4.87,61.19,14.63c33.77,19.53,33.81,51.17,0,70.67   C1360.54,1254.24,1338.38,1259.12,1316.24,1259.12z" clip-rule="evenodd"/><path fill="#101f3b" fill-rule="evenodd" d="M1286.36,1171.1l-0.41,1.13c-3.4,0.15-7.69,11.42-6.18,20.07c4.86,12.9-0.18,23,1.79,37.53    c1.21,8.98,4.27,15.63,11.38,20c11.85,7.09,20.58,8.38,21.97-1.61c1.32-6.87,0.08-13.48-3.12-24.03l-5.67-27.89L1286.36,1171.1z" clip-rule="evenodd"/><path fill="#f3a97d" fill-rule="evenodd" d="M1342.46,764.98c-8.75,17.2-8,51.49-6.45,87.22c-0.58,21.64,7.97,41.76,20.41,69.79l8.61,40.59     c4.93-13.07,7.51-26.24,6.69-39.57c-3.81-28.45-6.43-48.05-9.87-73.75l7.16-49.92C1377.02,777.91,1359.89,748.24,1342.46,764.98z     " clip-rule="evenodd"/><path fill="#101f3b" fill-rule="evenodd" d="M1310.11,722.06c-18.91,2.68-22.58,25.5-29.64,38.93C1252.71,740,1272.43,698.24,1310.11,722.06z" clip-rule="evenodd"/><path fill="#101f3b" fill-rule="evenodd" d="M1301.37,1156.48c4.06,9.32,9.55,17.14,16.87,23.07c9.26,7.49,17.83,12.02,25.14,11.05     c7.06-2.69,6.69-8.61,3.94-16.73c-4.03-8.36-12.93-16.15-22.86-22.89l-10.9-9.78L1301.37,1156.48z" clip-rule="evenodd"/><path fill="#ec965e" fill-rule="evenodd" d="M1352.67,1060.92c-7.58,22.33-21.54,51.3-37.27,82.11c0,0,19.37,16.86,11.43,22.95     c-11.8,9.04-26.93-19.41-26.93-19.41l22.43-78.33L1352.67,1060.92z" clip-rule="evenodd"/><path fill="#f3a97d" fill-rule="evenodd" d="M1303.19,1226.47c-16.16,1.99-18.81-17.84-18.93-35.45c-0.05-5.27,0.13-10.32,0.25-14.56     c14.37-36.04-10.96-68.39,6.35-99.74l-2.21-12.84l-5.9-34.31l41.51-4.98l7.41,38.06l2.62,22.64     c-4.59,30.28-24.85,64.26-29.02,96.57C1304.43,1196.77,1312.84,1225.29,1303.19,1226.47z" clip-rule="evenodd"/><path fill="#f3a97d" fill-rule="evenodd" d="M1307.62,1082.31c-19.22,15.28-2.19,79.18-23.36,108.71c-0.05-5.27,0.13-10.32,0.25-14.56     c14.37-36.04-10.96-68.39,6.35-99.74l-2.21-12.84C1297.02,1071.9,1307.62,1082.31,1307.62,1082.31z" clip-rule="evenodd"/><path fill="#005298" fill-rule="evenodd" d="M1365.3,966.78c1.29,44.41-11.56,50.53-10.43,81.5c0.12,2.38-0.16,4.96-0.78,7.62     c-2.37,10.39-9.83,21.83-18.92,25.85c-0.9,0.41-1.83,0.74-2.77,0.98c-9.37,1.11-18.22,1.44-25.7-0.25     c-8.5-1.92-15.29-6.46-19.11-15.41c0.19-32.89-24.67-56.12-27.41-99.71c-1.18-18.57,3.26-36.14,15.1-49.06l14.56-0.22l72.34-1.16     L1365.3,966.78z" clip-rule="evenodd"/><path fill="#1f407c" fill-rule="evenodd" d="M1306.71,1082.49l0.91-0.18c-12.71-20.81-28.16-62.94-26.84-106.75c7.81-21.99,27.25-30.38,49.27-35.76     c-3.74,0.38-7.38,0.57-10.91,0.57c-20.77,0-37.6-6.48-46.92-18.38c-8.45,11.06-12.21,24.91-12.21,39.66     c0,1.89,0.06,3.81,0.18,5.73c2.73,43.42,27.4,66.64,27.41,99.32c0,0.13,0,0.25,0,0.38     C1291.42,1076.02,1298.2,1080.56,1306.71,1082.49L1306.71,1082.49z" clip-rule="evenodd"/><path fill="#4485c6" fill-rule="evenodd" d="M1357.46,868.19c-2.38,17-1.14,33.28,4.73,48.74c-1.76,10.76-7.72,18.76-21.9,21.38     c-30.54,5.7-56.16-0.69-68.37-16.7c11.08-11.43,10.91-28.77,3.82-44.79c-5.34-8.91-8.97-18.57-11.14-28.91     c-2.71-12.77-3.66-25.03-2.57-39.48c14.65-14.88,30.33-28.74,47.58-32.52l38.34-14.54c11.41,1.64,20.58,22.19,17.52,37.57     c1.53,23.81,13.22,33.78,13.56,48.55C1379.26,859.4,1371.35,867.12,1357.46,868.19z" clip-rule="evenodd"/><path fill="#3a76ba" fill-rule="evenodd" d="M1319.14,940.36c6.69,0,13.78-0.67,21.17-2.05c14.17-2.62,20.13-10.63,21.9-21.38     c-4.02-10.56-5.87-21.52-5.87-32.82c-0.01-5.24,0.38-10.54,1.14-15.92c-0.18,0.01-0.35,0.02-0.53,0.02     c-5.66,0-14.18-5.43-18.62-10.97c3.81,16.21-1.22,29.51-17.22,32.52c-1.86,0.35-3.6,0.51-5.24,0.51     c-18.59-0.01-23.42-21.3-33.42-42.88l-17.82,0.52c2.17,10.34,5.8,20,11.14,28.91c3.18,7.2,4.97,14.66,4.97,21.73     c0,8.67-2.69,16.77-8.79,23.06C1281.19,933.74,1298.16,940.36,1319.14,940.36z" clip-rule="evenodd"/><path fill="#f3a97d" fill-rule="evenodd" d="M1292.3,782.72c5.09-8.86,6.97-16.95,7.81-27.16l30.46,2.46l-0.35,21.74     C1341.59,811.22,1295.35,802.91,1292.3,782.72z" clip-rule="evenodd"/><path fill="#4485c6" fill-rule="evenodd" d="M1303.67,797.52c0.42,0,0.85-0.04,1.27-0.11c-4.89-2.38-9.11-5.97-11.27-10.37     c0.48,4.27,2.19,7.48,6.2,9.53C1301.16,797.22,1302.42,797.52,1303.67,797.52z" clip-rule="evenodd"/><path fill="#8e3890" fill-rule="evenodd" d="M1293.74,780.08c1.74-3.39,3.02-6.71,3.98-10.12l-2.69,0.48C1294.49,773.94,1294,777.17,1293.74,780.08z" clip-rule="evenodd"/><path fill="#ec965e" fill-rule="evenodd" d="M1304.94,797.41c9.3-1.52,17.1-19.4,19.28-32.13l-26.5,4.68c-0.96,3.42-2.24,6.73-3.98,10.12     c-0.23,2.56-0.3,4.89-0.06,6.96C1295.83,791.44,1300.06,795.03,1304.94,797.41z" clip-rule="evenodd"/><path fill="#f3a97d" fill-rule="evenodd" d="M1335.07,762.61c17.04-28.65,8.3-53.57-14.95-58.99c-25.45-5.93-42.54,12.41-42.54,34.73     c-0.76,23.54,5.2,40.23,14.12,41.67c14.7,2.38,25.4-4.17,29.68-14.04L1335.07,762.61z" clip-rule="evenodd"/><path fill="#101f3b" fill-rule="evenodd" d="M1336.53,771.29l-6.3,8.47c-0.32-1.44-0.97-15.77-1.56-19.69l-2.46-6.37l-6.72,2.88     c-13.72,0.72-16.17-23.36-41.85-20.27c-2.24-22.93,14.87-35.59,35.89-35.38c25.49,2.13,33.62,16.99,32.71,35.24     C1345.65,747.52,1341.76,762.35,1336.53,771.29z" clip-rule="evenodd"/><path fill="#101f3b" fill-rule="evenodd" d="M1314.85,743.74c26.41-2.16,37.5,16.15,39.72,32.81c2.95,22.25-1.89,31.21-9.51,42.92     c-5.37,8.25-20.9,21.76-20.9,21.76c-9.21-43.12,11.89-68.64,4.02-81.42c-4.08-6.63-13.51-10.01-13.51-10.01L1314.85,743.74z" clip-rule="evenodd"/><path fill="#f3a97d" fill-rule="evenodd" d="M1319.27,764.33c-1.3-3.57-1.64-3.16-1.09-4.77c2.82-8.19,8.19-12.48,11.91-4.7     c0.96,2.02,0.09,4.38-0.79,6.44c-0.63,1.47-1.28,2.97-2.36,4.15c-1.08,1.18-2.68,2-4.26,1.72     C1321.18,766.89,1319.79,765.76,1319.27,764.33z" clip-rule="evenodd"/><path fill="#ec965e" fill-rule="evenodd" d="M1149.17,869.16c-6.42,4.2-18.23-0.25-26.67-3.25l-7.48-16.98l14.04-6.06l20.99,9.66     C1154.63,861.64,1158.35,866.74,1149.17,869.16z" clip-rule="evenodd"/><path fill="#f3a97d" fill-rule="evenodd" d="M1122.18,866.68c0.79,0.41,1.7,0.55,2.57,0.4l2.87-0.51c2.37-0.39,3.14-6.71,2.23-8.94l-6.34-10.52     l-4.15-0.94l-2.53-1.28c-2.82,1.85-4.62,4.33-1.28,11.21l2.21,6.72c0.39,1.21,1.25,2.21,2.38,2.8L1122.18,866.68z" clip-rule="evenodd"/><path fill="#557abc" fill-rule="evenodd" d="M1115.92,846.28c4.3,6,8.97,3.65,4.68-2.34l-67-95.28L1115.92,846.28z" clip-rule="evenodd"/><path fill="#f3a97d" fill-rule="evenodd" d="M1152.37,869.77l-11.59-4.01c-5.37-3.65-6.46-8.48-9.32-15.26l-6.32-2.44l-8.12,0.09     c-3.72-0.48-3.71-4.3,0.01-4.48l9.57-1.82l7.29,1.83c4.82,0.72,9.43,2.73,13.82,6.33l9.05,10.37L1152.37,869.77z" clip-rule="evenodd"/><path fill="#f3a97d" fill-rule="evenodd" d="M1147.54,852.26c4.21-0.78,7.21,12.38,0.02,15.84c3.89,0.95,46.39,23.38,78.03,10.85l41.84-20.5     c16.82-2.64,6.58-50.03-5.39-50.03c-12.02,14.45-19.95,23.02-55.5,47.78L1147.54,852.26z" clip-rule="evenodd"/><path fill="#9cb1bf" fill-rule="evenodd" d="M1407.21,1132.18l-0.01-0.02C1407.2,1132.17,1407.21,1132.18,1407.21,1132.18z" clip-rule="evenodd"/><polygon fill="#b8d9f2" fill-rule="evenodd" points="1684.6 701.01 1671.14 711.72 1770.82 1247.16 1781.06 1253.14 1694.84 706.98" clip-rule="evenodd"/><polygon fill="#b8d9f2" fill-rule="evenodd" points="1657.67 716.13 1561.36 1364.71 1571.61 1370.69 1681.41 717.71 1671.14 711.28" clip-rule="evenodd"/><polygon fill="#a1c6e9" fill-rule="evenodd" points="1694.84 706.98 1681.41 717.71 1781.06 1253.14 1794.54 1242.42" clip-rule="evenodd"/><polygon fill="#a1c6e9" fill-rule="evenodd" points="1667.94 722.1 1571.61 1370.69 1585.07 1365.85 1681.41 717.27" clip-rule="evenodd"/><polygon fill="#b8d9f2" fill-rule="evenodd" points="1880.16 813.77 1866.72 824.46 1966.37 1359.92 1976.64 1365.89 1890.42 819.75" clip-rule="evenodd"/><polygon fill="#b8d9f2" fill-rule="evenodd" points="1853.22 828.87 1756.93 1477.47 1767.19 1483.44 1876.97 830.43 1866.72 824.03" clip-rule="evenodd"/><polygon fill="#a1c6e9" fill-rule="evenodd" points="1890.42 819.75 1876.97 830.43 1976.64 1365.89 1990.09 1355.18" clip-rule="evenodd"/><polygon fill="#a1c6e9" fill-rule="evenodd" points="1863.5 834.84 1767.19 1483.44 1780.64 1478.61 1876.97 830" clip-rule="evenodd"/><polygon fill="#fff" fill-rule="evenodd" points="1858.92 832.49 1806.29 1181.61 1615.91 1071.68 1668.54 722.58" clip-rule="evenodd"/><polygon fill="#daecf8" fill-rule="evenodd" points="1829.99 850.96 1789.91 1116.98 1644.85 1033.23 1684.92 767.21" clip-rule="evenodd"/><path fill="#b8d9f2" fill-rule="evenodd" d="M1795,954.88l-112.54-64.97c0.56-1.88,11.12-37.85,26.65-33.29c1.14,0.32,2.27,0.83,3.37,1.46    c6.89,3.97,13.64,13.39,20.34,22.77c6.66,9.33,13.22,18.6,19.68,22.33l1.76,0.89c14.26,5.93,24.4-46.14,53.57-34.28L1795,954.88z" clip-rule="evenodd"/><path fill="#c9e3f6" fill-rule="evenodd" d="M1794.93,955.37l-112.47-64.92c0.9-0.76,17.94-15.18,42.34-1.08c3.82,2.19,7.78,5.1,11.86,8.9    c2.13,1.97,3.98,3.4,5.6,4.34c16.89,9.74,9.85-31.42,32.27-29.67c8.16,0.63,16.35,4.18,23.14,8.08c2.94,1.71,5.45,3.38,7.71,5    L1794.93,955.37z" clip-rule="evenodd"/><path fill="#a1c6e9" fill-rule="evenodd" d="M1795,954.88l-112.16-64.75c2.74-2.19,19.14-13.96,41.96-0.77c3.82,2.19,7.78,5.1,11.86,8.9    c2.13,1.97,3.98,3.4,5.6,4.34c4.02,2.32,6.69,1.73,8.72-0.44l1.51,1.01l1.76,0.89c9.46,3.94,17.1-17.69,29.62-29.24    c4.92,1.53,9.62,3.78,13.8,6.18c2.94,1.71,5.45,3.38,7.71,5L1795,954.88z" clip-rule="evenodd"/><path fill="#c9e3f6" fill-rule="evenodd" d="M1779.67,1031.88l3.69-24.43h0L1779.67,1031.88L1779.67,1031.88z M1729.23,996.7c1.62,0,2.92-0.7,4.04-1.88    c-6.14-4.11-13.19-12.03-18.13-21.38c-9.98-18.93-25.54-35.86-38.65-44.1l-8.3,55.12l0.63-4.14c3.61-2.06,9.53-4.52,17.13-4.52    c6.08,0,13.24,1.57,21.17,6.15c3.81,2.2,7.78,5.11,11.86,8.9c2.11,1.99,3.98,3.4,5.61,4.34    C1726.39,996.23,1727.91,996.7,1729.23,996.7z" clip-rule="evenodd"/><path fill="#b8d9f2" fill-rule="evenodd" d="M1777.24,1047.98l2.43-16.09l-2.36,15.61l-109.13-63.02l-0.07,0.49L1777.24,1047.98L1777.24,1047.98z     M1783.35,1007.45c-29.19-11.85-32.51-4.85-46.77-10.79l-1.78-0.88c-0.5-0.3-1.01-0.62-1.53-0.96c2.62-2.79,4.17-8.26,6.19-13.73    c2.89-7.82,6.76-15.62,16.01-15.62c0.45,0,0.9,0.02,1.37,0.06c8.17,0.63,16.37,4.16,23.14,8.09c2.95,1.7,5.46,3.38,7.73,4.98    L1783.35,1007.45z" clip-rule="evenodd"/><path fill="#a1c6e9" fill-rule="evenodd" d="M1777.31,1047.49l2.36-15.61l3.69-24.43c-29.19-11.85-32.51-4.85-46.77-10.79l-1.79-0.88    c-0.5-0.3-1.01-0.62-1.53-0.96c-1.12,1.18-2.42,1.88-4.04,1.88c-1.32,0-2.84-0.47-4.64-1.5c-1.63-0.94-3.5-2.36-5.61-4.34    c-4.08-3.8-8.06-6.7-11.86-8.9c-7.93-4.58-15.09-6.15-21.17-6.15c-7.6,0-13.52,2.46-17.13,4.52l-0.63,4.15L1777.31,1047.49z" clip-rule="evenodd"/><path fill="#c9e3f6" fill-rule="evenodd" d="M1232.6,1779.88c-57.04,0-114.07-12.58-157.59-37.7c-87-50.21-87-131.68,0-181.97   c43.53-25.13,100.55-37.66,157.59-37.66c57.03,0,114.06,12.53,157.56,37.66c86.96,50.29,87.05,131.76,0,181.97   C1346.65,1767.3,1289.62,1779.88,1232.6,1779.88z" clip-rule="evenodd"/><path fill="#c9e3f6" fill-rule="evenodd" d="M1573.64,1540.16c-22.15,0-44.31-4.89-61.21-14.64c-33.79-19.5-33.79-51.14,0-70.67   c16.9-9.76,39.05-14.63,61.21-14.63c22.15,0,44.3,4.87,61.19,14.63c33.77,19.53,33.81,51.17,0,70.67   C1617.94,1535.28,1595.79,1540.16,1573.64,1540.16z" clip-rule="evenodd"/><path fill="#101f3b" fill-rule="evenodd" d="M1506.43,1489.42c-0.82,0.17-3.19,2.36-3.64,5.28c-0.45,2.91,0.73,7.74,0.73,7.74s5.01,3.82,9.92,3.74   c4.91-0.1,9.74-1.92,11.38-3.19c1.63-1.28,2.19-4.19,4.09-5.01c1.92-0.82,5.74-0.18,7.56-0.18c1.82,0,7.38-2.09,9.83-4.37   c2.46-2.27,3.64-5.1,3.82-8.47c0.18-3.37-4.73-5.74-4.73-5.74L1506.43,1489.42z" clip-rule="evenodd"/><path fill="#101f3b" fill-rule="evenodd" d="M1529.02,1472.76c4.1-0.19,10.38,0.36,13.75,2.09c3.37,1.72,5.74,4.08,6.01,7.5c0.27,3.42,1.18,6.15-2.64,8.16   c-3.82,2-4.64,3.64-11.02,3.73c-6.38,0.09-11.02,3.19-13.39,4.46c-2.36,1.28-17.38,3.09-17.75-5.28   c3.55-13.93,5.54-20.96,5.73-22.02C1509.91,1470.35,1529.02,1472.76,1529.02,1472.76z" clip-rule="evenodd"/><path fill="#f3a97d" fill-rule="evenodd" d="M1533.11,1438.52c-1.73,5.46-2.82,12.92-1.55,17.48c1.27,4.55,3.27,19.21,3.27,19.21s3.74,2.19,2.28,5.37   c-1.46,3.19-20.03,1.1-20.03,1.1s-8.57,0.36-8.2-4.65c0.37-5,3.29-17.02,4.02-21.21c0.73-4.19,1.37-17.67,1.55-19.4   C1514.63,1434.69,1533.11,1438.52,1533.11,1438.52z" clip-rule="evenodd"/><path fill="#4485c6" fill-rule="evenodd" d="M1508.9,1444.21c0.17,2.98,12.54,6.26,16.57,6.04c2.27-0.09,5.85-0.79,8.69-1.75c2.19-0.7,3.94-1.57,4.42-2.4   c1.09-2.01,12.76-60.31,20.76-81.94c7.99-21.68,24.77-59.39,26.22-73.42c0.39-3.89,1.22-11.23,2.14-20.1   c2.36-23.03,5.07-56.07,1.3-64.37c-5.2-11.45-44.97-18.92-44.97-18.92c-8.56,9.66-18.57,25.83-20.58,61.36   c-2.01,35.49,2.75,40.08,2.93,52.44c0.17,12.36,1.62,19.66,0,26.96c-1.67,7.25-8.04,24.21-8.92,45.66   C1511.43,1399.46,1508.73,1441.28,1508.9,1444.21z" clip-rule="evenodd"/><path fill="#3a76ba" fill-rule="evenodd" d="M1533.89,1449.31c0.05-0.35,5.04-35.56,8.06-44.59c0.27-0.82,27.34-82.56,28.31-90.23   c0.92-7.19-0.91-39.3-2.04-45.33l-3.22,0.6c1.08,5.74,2.88,37.54,2.01,44.31c-0.8,6.2-22.43,72.39-28.17,89.61   c-3.12,9.32-7.99,43.71-8.2,45.18L1533.89,1449.31z" clip-rule="evenodd"/><path fill="#3a76ba" fill-rule="evenodd" d="M1534.16,1448.49c2.19-0.7,3.94-1.57,4.42-2.4c1.09-2.01,12.76-60.31,20.76-81.94   c7.99-21.68,24.77-59.39,26.22-73.42c0.39-3.89,1.22-11.23,2.14-20.1c-13.38-10.01-28.85-17.65-28.85-17.65   c-0.53,0.83,5.2,34.13,5.2,34.13l3.14,16.65c-0.25-12.09-1.41-29.86-2.19-34.01l3.22-0.61c1.13,6.03,2.96,38.15,2.04,45.34   c-0.79,6.19-18.51,60.46-25.51,81.73C1540.78,1414.7,1535.74,1437.98,1534.16,1448.49L1534.16,1448.49z M1550.92,1366.73   c1.55-5.71,4.52-14.76,7.61-23.79C1556.15,1350.47,1553.52,1358.72,1550.92,1366.73z" clip-rule="evenodd"/><path fill="#3a76ba" fill-rule="evenodd" d="M1544.75,1396.21c7-21.27,24.72-75.54,25.51-81.73c0.92-7.19-0.91-39.3-2.04-45.33l-3.22,0.6   c0.78,4.15,1.94,21.92,2.19,34.01l1.8,9.56c0,0-5.4,14.79-10.46,29.62c-2.38,7.53-5.01,15.78-7.6,23.79   c-0.52,1.91-0.88,3.46-1.03,4.5C1549.4,1374.55,1547.3,1384.4,1544.75,1396.21z" clip-rule="evenodd"/><path fill="#101f3b" fill-rule="evenodd" d="M1578.54,1490.32c-0.36-0.18-3.28,2-3.55,3.83c-0.27,1.82,0.19,3.39,2.28,5.65c2.09,2.26,6.38,4.82,12.1,4.18   c5.74-0.64,14.66-6.19,17.03-6.92c2.36-0.73,14.56-2.29,18.21-4.83c3.64-2.55,7.01-6.84,8.01-9.88c1-3.04-0.82-6.23-2.91-7.96   C1627.62,1472.66,1578.54,1490.32,1578.54,1490.32z" clip-rule="evenodd"/><path fill="#101f3b" fill-rule="evenodd" d="M1605.4,1469.29c0.36,0.18,3.82,1.36,7.65,0.46c3.82-0.91,12.01-1.59,15.2,1.39c3.19,2.98,3.73,5.35,3.27,8.08   c-0.45,2.73-1.18,7.01-6.1,9.56c-4.92,2.55-18.93,4.55-21.66,5.55c-2.73,1-12.84,9.29-20.03,6.37c-7.19-2.91-8.55-6.19-7.92-8.92   c0.64-2.73,1.81-11.64,3.73-14.11c1.92-2.48,8.01-5.65,8.01-5.65L1605.4,1469.29z" clip-rule="evenodd"/><path fill="#f3a97d" fill-rule="evenodd" d="M1607.59,1434.6c0,0-2.55,28.77-2.55,31.5c0,2.73,2.55,3.64,4.19,4.92c1.64,1.27,2.27,6,2.27,6   s-12.46,6.56-18.7,6.83c-6.24,0.27-11.89-3.18-11.62-6.83c0.28-3.64,3.01-9.74,3.1-15.11c0.08-5.37-1.73-23.4-1.73-26.4   C1582.55,1432.51,1607.59,1434.6,1607.59,1434.6z" clip-rule="evenodd"/><g><path fill="#4485c6" fill-rule="evenodd" d="M1617.74,1189.6c0.54,0.68,11.47,19.39,13.11,36.88c1.64,17.48,5.69,27.49-0.87,66.28   c-6.56,38.78-13.48,81.4-14.75,87.95c-1.27,6.55-4.19,59.54-5.09,62.45c-0.91,2.92-24.77-0.91-29.14-2.73   c-4.37-1.82-2.91-8.56-2.91-8.56c0,0-5.28-57.36-3.46-74.48c1.83-17.12,5.29-56.81,5.29-56.81c0,0-8.74-15.84-21.67-25.67   c-12.93-9.83-2.91-63.18,4.37-71.93C1569.89,1194.24,1617.74,1189.6,1617.74,1189.6z" clip-rule="evenodd"/></g><g><path fill="#3a76ba" fill-rule="evenodd" d="M1607.86,1444.34c0,0,3-37.82,4.45-55.31c1.42-17.01,9.34-58.9,14.17-80.26c5.63-24.9,6.71-46.98,3.49-71.59   c-3.65-27.91-10.35-38.36-10.64-38.79l-2.73,1.8c0.06,0.1,6.59,10.4,10.12,37.42c3.16,24.21,2.11,45.94-3.44,70.44   c-4.85,21.45-12.8,63.56-14.24,80.72c-1.45,17.48-4.45,55.31-4.45,55.31L1607.86,1444.34z" clip-rule="evenodd"/></g><g><path fill="#cc262f" fill-rule="evenodd" d="M1572.92,1093.92c0,0,3.16,0.9,6.85,1.17c3.69,0.27,27.18,20.76,31.54,27.59c4.37,6.83,9.84,19.12,8.88,31.82   c-0.96,12.7-1.91,27.99-1.23,34.68c0.69,6.69-3.14,10.79-24.17,14.75c-21.04,3.96-60.38-1.09-58.73-10.17   c1.65-9.08-11.15-42.69-14.79-49.51c-3.64-6.82-15.79-34-12.38-46.29c3.42-12.29,9.15-13.15,16.05-14.7   c6.9-1.55,32.61,6.37,32.61,6.37L1572.92,1093.92z" clip-rule="evenodd"/></g><g><path fill="#cc262f" fill-rule="evenodd" d="M1523.51,1064.78c0,0-9.56,10.9-11.74,18.29c-2.19,7.39-2.87,14.9-2.87,14.9s12.41,7.93,18.3,1.78   c5.9-6.15,11.2-16.68,11.2-16.68s0.82-13.1-4.09-14.87C1529.38,1066.42,1523.51,1064.78,1523.51,1064.78z" clip-rule="evenodd"/></g><g><path fill="#f3a97d" fill-rule="evenodd" d="M1526.82,1029.79c-0.3,2.44-0.52,5.03-0.74,7.82c-0.26,3.8,2.41,5.68,6.17,6.16c1.87,0.3,4.06,0.22,6.25-0.18   c7.21-1.22,14.9-5.42,15.21-10.22c0.53-9.31,6.25-55.46,7.64-58.47c1.36-2.97,1.62-7.34,1.1-12.02   c-0.57-4.63-15.04-18.83-15.04-18.83l-4.8-3.62l-2.67-2.84c0,0-3.19-1.53-4.46-0.92c-1.26,0.66,0.65,3.76,0.65,3.76   s-1,0.69-2.18,1.79c-1.19,1.09-2.27,2.31-2.27,2.31c0,0-2.58,1.35-3.28,2.97c-0.74,1.66-2.32,5.86-2.32,5.86s-0.17,3.27,2.1,5.81   c1.71,1.92,11.28,4.5,14.95,10.79c1.14,2.01,1.71,4.32,1.27,7.12c-1.79,11.76-11.32,26.66-13.55,33.35   C1529.09,1015.54,1527.74,1021.75,1526.82,1029.79z" clip-rule="evenodd"/></g><g><path fill="#3c5988" fill-rule="evenodd" d="M1535.11,1044.9c1.2,0,2.41-0.55,3.38-1.3l0,0c-1.3,0.23-2.59,0.36-3.82,0.36c-0.85,0-1.66-0.06-2.42-0.18   l0,0c0.61,0.52,1.31,0.92,2.1,1.05C1534.59,1044.88,1534.85,1044.9,1535.11,1044.9z" clip-rule="evenodd"/></g><g><path fill="#f3a97d" fill-rule="evenodd" d="M1534.66,1043.96c1.23,0,2.53-0.13,3.82-0.36l0,0l0.48-0.43c1.22-1.23,2.01-2.8,2.75-4.33   c5.99-12.76,9.84-26.39,13.6-39.99c0.56-2.01,1.13-4.02,1.71-6.07c0.26-1.05,0.56-2.05,0.74-3.15c0.05-0.29,0.09-0.58,0.13-0.87   l-17.79,1.84c-3.46,7.98-7.84,15.57-9.26,19.83c-1.74,5.1-3.1,11.31-4.02,19.36c0.57,2.06,1.45,4.02,2.06,6.08   c0.48,1.79,0.74,3.67,1.48,5.37c0.44,0.96,1.09,1.88,1.88,2.54l0,0C1533,1043.89,1533.82,1043.96,1534.66,1043.96z" clip-rule="evenodd"/></g><g><path fill="#b8d9f2" fill-rule="evenodd" d="M1658.52,930.88l-0.56-0.31l66.25,15.42l-63.41,30.74c3.97-2.44,7.2-6.95,8.8-13.03   c0.53-2,0.85-4.05,0.98-6.1C1671.27,946.62,1666.49,935.47,1658.52,930.88z" clip-rule="evenodd"/></g><g><path fill="#80a8d7" fill-rule="evenodd" d="M1697.36,939.74c7.66,6.34,2.05,18.28,2.05,18.28l29.89-11.93L1697.36,939.74z" clip-rule="evenodd"/></g><g><path fill="#8fb7e1" fill-rule="evenodd" d="M1649.9,928.9l-349.73,36.14c1.34-0.14,2.69-0.07,4.07,0.22l349.73-36.14   C1652.6,928.83,1651.24,928.76,1649.9,928.9z" clip-rule="evenodd"/></g><g><path fill="#8fb7e1" fill-rule="evenodd" d="M1653.97,929.12l-349.73,36.14c1.52,0.31,3.03,0.9,4.54,1.76c0.89,0.52,1.74,1.1,2.54,1.77l349.73-36.14   c-0.8-0.66-1.65-1.26-2.53-1.77C1657.02,930.01,1655.49,929.43,1653.97,929.12z" clip-rule="evenodd"/></g><g><path fill="#a1c6e9" fill-rule="evenodd" d="M1661.05,932.64l-349.73,36.14c5.44,4.48,8.93,12.24,9.51,20.41l349.74-36.14   C1669.98,944.88,1666.49,937.12,1661.05,932.64z" clip-rule="evenodd"/></g><g><path fill="#a1c6e9" fill-rule="evenodd" d="M1670.57,953.06l-349.74,36.14c0.24,3.3,0,6.68-0.78,9.93l349.74-36.14   C1670.56,959.74,1670.8,956.36,1670.57,953.06z" clip-rule="evenodd"/></g><g><path fill="#8fb7e1" fill-rule="evenodd" d="M1669.79,962.99l-349.74,36.14l-0.17,0.71c-2.33,8.84-8.1,14.36-14.59,15.03l349.74-36.14   c6.48-0.67,12.25-6.18,14.58-15.03L1669.79,962.99z" clip-rule="evenodd"/></g><g><path fill="#b8d9f2" fill-rule="evenodd" d="M1285.58,980.07c-3.34,12.67,1.62,27.36,11.09,32.82c9.47,5.46,19.86-0.38,23.2-13.05   c3.34-12.67-1.63-27.36-11.1-32.82C1299.31,961.56,1288.92,967.41,1285.58,980.07z" clip-rule="evenodd"/></g><g><path fill="#80a8d7" fill-rule="evenodd" d="M1296.47,986.35c-1.22,4.62,0.59,9.98,4.04,11.97c3.46,1.99,7.24-0.14,8.47-4.76   c1.22-4.62-0.6-9.98-4.05-11.97C1301.49,979.6,1297.69,981.73,1296.47,986.35z" clip-rule="evenodd"/></g><g><path fill="#d63830" fill-rule="evenodd" d="M1581.34,1095.7c0,0,10.59-6.75,12.64-7.84c2.05-1.1,19.67,27.88,18.3,33.26   c-1.36,5.39-2.73,10.16-4.09,14.39c-1.37,4.23-0.28,6.84-1.92,9.29c-1.64,2.46-16.93,9.15-21.99,1.78   c-5.05-7.38-9.84-20.07-9.08-32.91C1575.95,1100.83,1577.15,1098.34,1581.34,1095.7z" clip-rule="evenodd"/></g><g><path fill="#f3a97d" fill-rule="evenodd" d="M1561.47,942.43v0.04l0.13,0.31l0.87,0.91l0.22,0.22l0.35,0.31c0.61,0.47,1.22,0.96,1.66,1.26l0.43,0.31   l-0.74,0.39h-0.04c-0.83,0.48-1.97,1.44-0.48,2.71c2.19,1.79,12.28,9.27,13.29,10.27c1.01,1,6.03,6.2,6.03,6.2s0.35,3.72,0.35,4.64   c0,0.91-1.62-0.66-1.62-0.66l-2.58-4.81c-0.17-0.26-3.37-3.54-5.29-2.76c-1.88,0.83-2.53,3.67-0.87,5.29   c1.62,1.66,2.63,6.73,4.46,7.91c0.88,0.61,1.84,1.05,2.71,1.31c0.92,0.27,1.75,0.4,2.28,0.35c1.01-0.09,4.93-1.93,6.29-1.01   c1.35,0.92,12.28,16.3,18.13,26.14c5.81,9.83,18.27,37.23,18.09,39.5c-0.04,0.53-0.52,1.89-1.36,3.8l-0.05,0.18   c-2.8,6.51-9.22,19.14-14.16,25.91c-6.46,8.83-13.76,14.55-14.94,19.01c-0.14,0.44-0.18,1.01-0.14,1.62   c0.17,5.41,5.34,16.6,8.74,21.41c3.8,5.37,8.43,10.09,8.43,10.09s21.11-31.12,24.12-37.59c3.02-6.47,16.92-44.62,17.57-48.16   c0.65-3.58-3.1-9.75-4.28-12.1c-1.18-2.41-13.94-21.24-21.58-31.16c-7.65-9.92-27.01-24.39-27.23-26.22   c-0.17-1.84-1.44-16.57-1.44-16.57s-7.56-8.48-9.92-9.74c-2.36-1.26-11.1-5.81-12.59-6.38c-1.1-0.39-2.32,0.31-2.71,1.14   l-0.08,0.87c0.3,1.01,7.78,4.99,8.87,5.59l-0.39-0.17c-0.31-0.13-0.79-0.3-1.32-0.57c-3.62-1.49-11.36-4.55-12.54-4.11   c-1.53,0.52-1,2.18-1,2.18l9.13,5.37l0.04,0.05l0.53,0.35c-1.36-0.61-12.24-5.51-13.25-5.59   C1562.66,940.42,1561.22,941.42,1561.47,942.43z" clip-rule="evenodd"/></g><g><path fill="#f3a97d" fill-rule="evenodd" d="M1594.51,1091.81c2.67-2.85,5.64-6.25,8.74-9.93c15.96-18.74,20.06-34.7,20.49-36.62   c-2.8,6.51-9.22,19.14-14.16,25.91c-6.46,8.83-13.76,14.55-14.94,19.01c-0.1,0.33-0.15,0.73-0.15,1.17   C1594.5,1091.5,1594.5,1091.65,1594.51,1091.81L1594.51,1091.81z" clip-rule="evenodd"/></g><g><path fill="#f3a97d" fill-rule="evenodd" d="M1623.8,1045.08l5.11-2.36c0,0-3.1-4.54-10.23-21.28c-7.08-16.73-26.92-45.19-26.92-45.19l-3.1-2.71l-8.3,2.71   v0.04c0.8,0.23,1.53,0.36,2.05,0.36c0.08,0,0.15-0.01,0.23-0.01c0.8-0.07,3.49-1.26,5.22-1.26c0.43,0,0.81,0.07,1.08,0.25   c0.65,0.44,3.53,4.26,7,9.19c3.71,5.29,8.1,11.86,11.13,16.95c5.77,9.76,18.08,36.8,18.09,39.45c0,0.02,0,0.04,0,0.05   C1625.11,1041.81,1624.63,1043.17,1623.8,1045.08z" clip-rule="evenodd"/></g><g><path fill="#f3a97d" fill-rule="evenodd" d="M1631.69,1046.39c2.75-3.28,6.1-6.84,10.37-6.73c0.94,0.02,1.88,0.24,2.69,0.7c1.23,0.7,2.12,1.93,2.59,3.27   c1.47,4.19-0.9,8.63-2.81,12.62c-1.96,4.09-3.51,8.34-5.28,12.52c-3.79,8.95-8.55,17.45-13.3,25.93c-2.8,4.99-5.59,9.98-8.39,14.96   c-1.48,2.63-3.6,5.64-6.61,5.43c-1.08-0.07-2.07-0.57-2.99-1.13c-2.16-1.29-4.18-3-5.19-5.3c-0.91-2.08-0.9-4.43-0.88-6.7   c0.01-2.65,0.04-5.33,0.74-7.89c0.76-2.83,2.31-5.37,3.82-7.88C1614.63,1072.55,1621.42,1058.64,1631.69,1046.39z" clip-rule="evenodd"/></g><g><path fill="#d9713c" fill-rule="evenodd" d="M1593.29,948.77l-9-6.64l-10.66-5.59l-0.08,0.87c0,0.01,0.01,0.02,0.01,0.03l0,0    c0.25,0.63,3.06,2.32,5.47,3.7c1.56,0.88,2.96,1.64,3.39,1.87l0,0l0.13,0.05L1593.29,948.77z" clip-rule="evenodd"/><path fill="#d9713c" fill-rule="evenodd" d="M1589.26,952.53c0.64,0,1.13-0.07,0.66-0.36c-1-0.65-10-5.94-10-5.94l-12.76-5.9l2.91,1.72l6.22,3.66    l0.04,0.05l0.65,0.39l10.58,6.3C1587.56,952.44,1588.52,952.53,1589.26,952.53z" clip-rule="evenodd"/><path fill="#d9713c" fill-rule="evenodd" d="M1585.08,958.34l0.74-0.7c0,0-10.18-7.38-11.36-7.95c-1.18-0.52-9.31-3.88-9.31-3.88l-0.74,0.39    c3.85,1.84,9.58,4.68,9.58,4.68L1585.08,958.34z" clip-rule="evenodd"/><path fill="#f3a97d" fill-rule="evenodd" d="M1598.68,975.46c2.94-7.02,9.25,1.81,11.97,4.22c5.64,5,10.97,10.37,15.92,16.07    c2.52,2.89,4.27,5.63,6.14,8.88c1.97,3.42,5.35,5.84,7.61,9.05c2.27,3.45,4.16,7.24,6.22,10.83c2.39,4.17,4.25,6.92,4.01,11.92    c-0.09,1.83-0.4,3.69-1.3,5.27c-0.92,1.58-2.54,2.85-4.37,2.94c-2.76,0.14-4.92-2.24-6.55-4.47c-1.72-2.37-3.35-4.82-4.73-7.41    c-2.17-4.05-3.73-8.4-5.85-12.47c-2.28-4.36-5.18-8.36-8.07-12.34c-6.39-8.79-12.77-17.58-19.16-26.37    C1599.19,979.78,1597.81,977.52,1598.68,975.46z" clip-rule="evenodd"/></g><g><path fill="#f3a97d" fill-rule="evenodd" d="M1563.8,1018.07c0,0,8.19,1.64,13.24,12.02c5.05,10.38,7.24,21.58,7.24,26.22c0,4.64-2.05,16.52-3.69,18.58   c-1.64,2.04-9.01,3.41-9.28,5.32c-0.28,1.91-2.05,4.64,2.73,16.66c-6.83,1.91-16.12,1.91-20.08,4.23   c-3.96,2.32-8.6,8.06-16.93,1.77c-8.33-6.28-6.15-14.34-5.33-17.07c0.82-2.73,2.32-14.61,1.64-21.72   c-0.68-7.1,13.25-36.6,16.52-38.78C1553.14,1023.12,1563.8,1018.07,1563.8,1018.07z" clip-rule="evenodd"/></g><g><path fill="#cc262f" fill-rule="evenodd" d="M1549.3,1186.09c1.28,0,2.57-0.54,3.17-1.64c0.56-0.99,0.46-2.22,0.26-3.35c-0.87-4.92-3.31-9.52-3.75-14.5   c-0.33-3.75,0.51-7.49,1.08-11.21c1.06-6.78,1.26-13.7,0.58-20.54c-0.79-7.93-2.73-15.7-5.01-23.32c-0.56-1.86-1.03-3.87-1.63-5.81   c-2.01-0.05-4.31-0.83-6.98-2.85c-3.41-2.57-5.05-5.44-5.76-8.12c-1.18,1.64-2.45,3.23-3.75,4.63c-0.03,0.53-0.07,1.09-0.12,1.71   c-0.32,4.33-0.41,8.67-0.53,13c-0.32,12.3-0.8,24.7,1.31,36.82c2.11,12.12,7.05,24.12,16.05,32.52c1.18,1.09,2.47,2.14,4.03,2.53   C1548.59,1186.05,1548.95,1186.09,1549.3,1186.09z" clip-rule="evenodd"/></g><g><path fill="#ce2037" fill-rule="evenodd" d="M1527.52,1099.39c1.3-1.4,2.57-2.99,3.75-4.63c-0.44-1.68-0.51-3.29-0.41-4.7c-0.25,0.13-0.49,0.25-0.74,0.38   c-0.28-1.7,0.59-3.35,1.62-4.76c0.13-0.46,0.27-1.11,0.41-1.92c-0.15-0.17-0.32-0.32-0.52-0.43c-0.36-0.22-0.76-0.32-1.17-0.32   c-0.84,0-1.72,0.4-2.37,0.95c-1.77,1.5-2.51,3.96-2.41,6.27c0.08,2.11,0.85,3.95,1.47,5.93   C1527.52,1097.35,1527.57,1098.31,1527.52,1099.39z" clip-rule="evenodd"/></g><g><path fill="#ec965e" fill-rule="evenodd" d="M1544,1105.73c-0.31-1.03-0.66-2.03-1.08-2.99c-0.21-0.47-0.42-0.92-0.65-1.36   c-1.93-3.59-4.46-6.98-6.66-10.42c-0.52-0.82-1.05-1.64-1.49-2.5c-1.1,0.51-2.19,1.05-3.26,1.6c-0.11,1.41-0.04,3.02,0.41,4.7   c0.7,2.67,2.35,5.54,5.76,8.12C1539.69,1104.9,1541.99,1105.67,1544,1105.73L1544,1105.73z M1531.74,1085.68   c0.08-0.13,0.17-0.24,0.26-0.35c0.22-0.28,0.43-0.55,0.65-0.82c-0.13-0.27-0.29-0.53-0.49-0.74   C1532,1084.57,1531.87,1085.22,1531.74,1085.68z" clip-rule="evenodd"/></g><g><path fill="#ec965e" fill-rule="evenodd" d="M1534.12,1088.46c2.22-1.02,4.5-1.86,6.9-2.26c0.94-0.15,1.96-0.2,3.01-0.2c0.8,0,1.63,0.03,2.46,0.06   c0.84,0.03,1.67,0.05,2.51,0.05c2.81,0,5.52-0.31,7.54-2c1.96-1.63,2.91-4.13,4.08-6.39c1.16-2.27,2.84-4.58,5.32-5.12   c0.94-0.21,2.09-0.22,2.63-1.01c0.55-0.83,0.1-1.93-0.37-2.8c-2.04-3.86-4.39-11.15-9.17-11.15c-1.06,0-2.24,0.36-3.55,1.19   c-2.14,1.34-3.55,3.54-4.99,5.6c-1.59,2.27-3.28,4.45-4.87,6.72c-1.25,1.78-2.26,4.33-3.88,5.77c-1.44,1.28-3.4,2.06-4.91,3.33   c-1.52,1.29-2.92,2.71-4.18,4.26c0.33,0.67,0.51,1.48,0.74,2.2C1533.58,1087.31,1533.84,1087.89,1534.12,1088.46z" clip-rule="evenodd"/></g><g><path fill="#b42025" fill-rule="evenodd" d="M1530.12,1090.44c0.25-0.13,0.49-0.25,0.74-0.38c0.14-1.84,0.56-3.34,0.83-4.26   c0.01-0.04,0.02-0.08,0.04-0.12C1530.71,1087.09,1529.84,1088.74,1530.12,1090.44z" clip-rule="evenodd"/></g><g><path fill="#ec965e" fill-rule="evenodd" d="M1530.86,1090.06c1.08-0.55,2.16-1.1,3.26-1.6c-0.29-0.56-0.55-1.15-0.74-1.75c-0.23-0.72-0.41-1.53-0.74-2.2   c-0.22,0.27-0.43,0.54-0.65,0.82c-0.08,0.11-0.17,0.23-0.26,0.35c-0.02,0.04-0.03,0.08-0.04,0.12   C1531.43,1086.72,1531,1088.22,1530.86,1090.06z" clip-rule="evenodd"/></g><g><path fill="#f3a97d" fill-rule="evenodd" d="M1566.61,1056.95c0,0-3.77-0.78-3.23,6.46c0.55,7.24,4.65,8.33,6.42,7.51c1.78-0.82-0.41-7.51-0.41-7.51   S1568.07,1057.58,1566.61,1056.95z" clip-rule="evenodd"/></g><g><path fill="#101f3b" fill-rule="evenodd" d="M1524.73,1027.77c6.84-7.45,21.17-13.52,30.19-12.02c9.83-0.82,18.16,5.19,19.8,17.89   c1.64,12.7-1.5,13.39-1.23,17.35c0.27,3.96,0.27,8.74,0.27,8.74s-6.14-5.87-9.15-1.09c-3,4.78-4.37,18.16-10.24,22.53   c-5.87,4.37-18.96,1.23-23.54,6.29c-4.59,5.05-5.95-3-6.09-6.29c-0.13-3.28-4.91-8.87-6.69-17.89   C1516.26,1054.26,1515.59,1037.74,1524.73,1027.77z" clip-rule="evenodd"/></g><g><path fill="#101f3b" fill-rule="evenodd" d="M1527.33,1081.71c0,0,2.96,2.13,3.8,6.39c0.84,4.26,8.62,19.02,10.4,29.53c1.77,10.52,3.96,24.72,4.51,36.05   c0.54,11.34-3.55,42.34-17.89,45.61c-6.56-18.84-8.47-39.19-7.09-52.72c1.36-13.52,2.32-36.46,0.82-46.84   c-1.5-10.38,0.82-16.11,2.86-18.58C1525.42,1080.34,1527.33,1081.71,1527.33,1081.71z" clip-rule="evenodd"/></g><g><path fill="#4485c6" fill-rule="evenodd" d="M1528.56,1079.42c1.27,0.54,2.52,1.18,3.52,2.14c0.99,0.96,1.7,2.28,1.69,3.66   c-0.01,0.83-0.28,1.64-0.55,2.42c-0.25,0.71-0.56,1.51-1.27,1.78c-0.66,0.25-1.38-0.06-2.01-0.37c-1.03-0.5-2.06-1-3.09-1.49   c-1.64-0.79-3.55-1.6-5.2-0.82c-0.06-1.42-1.03-2.77-0.75-4.16c0.16-0.81,0.71-1.47,1.31-2.03   C1524.26,1078.63,1525.96,1078.31,1528.56,1079.42z" clip-rule="evenodd"/></g><g><path fill="#80a8d7" fill-rule="evenodd" d="M1294.44,1292.92L1038.53,1145c-4.27-2.27-11.4-2.27-15.8,0l-422.22,243.81l-20.86-9.63l-0.16,24.37   c0,1.79,1.3,3.44,3.32,4.8l270.47,156.07c4.34,2.45,11.47,2.45,15.92,0l439.9-254.12c2.1-1.14,3.23-2.73,3.23-4.48v-24.34h-17.89   V1292.92z" clip-rule="evenodd"/></g><g><path fill="#b8d9f2" fill-rule="evenodd" d="M1038.53,1120.98c-4.27-2.4-11.4-2.4-15.8,0L582.8,1374.92c-4.43,2.5-4.43,6.54,0,9.29l270.47,156.04   c4.34,2.54,11.47,2.54,15.92,0l439.9-254.13c4.32-2.41,4.32-6.39,0-9.07L1038.53,1120.98z" clip-rule="evenodd"/></g><g><path fill="#daecf8" fill-rule="evenodd" d="M1028.96,1291.75l20.88,11.75l20.52-11.75l-20.52-12.03L1028.96,1291.75L1028.96,1291.75z M850.37,1272.09   l20.6,12.01l20.64-12.01l-20.64-11.85L850.37,1272.09L850.37,1272.09z M824.51,1286.94l20.56-11.75l20.78,11.75L845.06,1299   L824.51,1286.94L824.51,1286.94z M1106.81,1246.9l20.58,11.96l51.82-29.96l-20.82-12.04L1106.81,1246.9L1106.81,1246.9z    M1158.4,1246.67l25.68-15.05l20.75,11.92l-26.04,15.03L1158.4,1246.67L1158.4,1246.67z M1132.4,1261.4l20.53-11.78l20.63,11.78   l-20.63,12.26L1132.4,1261.4L1132.4,1261.4z M1226.43,1298.62l18.52,10.75l19.45-11.15l-18.48-10.77L1226.43,1298.62   L1226.43,1298.62z M1249.75,1285.25l19.46-11.13l18.36,10.67l-19.33,11.17L1249.75,1285.25L1249.75,1285.25z M1031.65,1167.46   l20.54,11.71l20.8-11.71l-20.8-11.91L1031.65,1167.46L1031.65,1167.46z M926.08,1291.84l20.63,12.16l20.61-12.16l-20.61-11.77   L926.08,1291.84L926.08,1291.84z M951.85,1277.05l20.8-11.85l20.51,11.85l-20.51,11.96L951.85,1277.05L951.85,1277.05z    M977.94,1262.09l20.61,12.02l20.71-12.02l-20.71-11.79L977.94,1262.09L977.94,1262.09z M1003.61,1247.02l20.86-11.72l20.5,11.72   l-20.5,12.03L1003.61,1247.02L1003.61,1247.02z M1029.7,1232.26l20.57,11.78l20.67-11.78l-20.67-12.07L1029.7,1232.26   L1029.7,1232.26z M1080.41,1291.65l20.81,11.98l20.52-11.98l-20.52-12.01L1080.41,1291.65L1080.41,1291.65z M1106.33,1276.54   l20.72,12.03l20.54-12.03l-20.54-11.93L1106.33,1276.54L1106.33,1276.54z M1054.94,1276.7l20.76-11.91l20.62,11.91l-20.62,11.98   L1054.94,1276.7L1054.94,1276.7z M1081.01,1261.86l20.53-11.85l20.68,11.85l-20.68,11.94L1081.01,1261.86L1081.01,1261.86z    M977.44,1291.75L998,1303.5l20.62-11.75L998,1279.73L977.44,1291.75L977.44,1291.75z M1003.2,1276.7l20.72-11.91l20.52,11.91   l-20.52,11.98L1003.2,1276.7L1003.2,1276.7z M1028.96,1261.86l20.88,11.94l20.52-11.94l-20.52-11.85L1028.96,1261.86   L1028.96,1261.86z M1054.94,1246.9l20.76-11.9l20.62,11.9l-20.62,11.96L1054.94,1246.9L1054.94,1246.9z M926.61,1262.45   l20.59,11.84l20.75-11.84l-20.75-11.81L926.61,1262.45L926.61,1262.45z M952.53,1247.45l20.55-11.9l20.79,11.9l-20.79,11.95   L952.53,1247.45L952.53,1247.45z M978.3,1232.59l20.7,12.01l20.57-12.01l-20.57-11.9L978.3,1232.59L978.3,1232.59z    M1004.34,1217.44l20.71-11.67l20.52,11.67l-20.52,11.97L1004.34,1217.44L1004.34,1217.44z M1030.15,1202.51l20.72,12.1l20.56-12.1   l-20.56-11.95L1030.15,1202.51L1030.15,1202.51z M915.24,1234.69l20.43,11.97l20.65-11.97l-20.65-11.75L915.24,1234.69   L915.24,1234.69z M941.07,1219.68l20.41-11.88l20.78,11.88l-20.78,11.94L941.07,1219.68L941.07,1219.68z M966.81,1204.95   l20.72,11.69l20.65-11.69l-20.65-12.08L966.81,1204.95L966.81,1204.95z M1081.01,1232.04l51.63-29.96l20.53,11.82l-51.63,29.84   L1081.01,1232.04L1081.01,1232.04z M1055.5,1217.33l51.76-30.09l20.71,12.1l-51.75,29.8L1055.5,1217.33L1055.5,1217.33z    M1061.45,1184.55l20.54-11.81l20.57,11.81l-20.57,12.03L1061.45,1184.55L1061.45,1184.55z M992.83,1189.84l20.46-11.76   l20.79,11.76l-20.79,11.92L992.83,1189.84L992.83,1189.84z M876.27,1257.16l20.61-11.91l20.72,11.91l-20.72,11.94L876.27,1257.16   L876.27,1257.16z M900.79,1277.51l20.64-11.97l20.47,11.97l-20.47,11.88L900.79,1277.51L900.79,1277.51z M874.84,1292.3   l20.59-11.93l20.56,11.93l-20.56,11.88L874.84,1292.3L874.84,1292.3z M874.14,1410.57l20.84,12.11l175.11-101.22l-20.75-12.07   L874.14,1410.57L874.14,1410.57z M941.2,1408.12l133.98-77.5l63.27,36.5l-133.99,77.34L941.2,1408.12L941.2,1408.12z    M638.65,1394.35l20.62,11.85l37.91-21.94l-20.5-11.88L638.65,1394.35L638.65,1394.35z M682.03,1369.22l20.84-11.78l20.57,11.78   l-20.57,12L682.03,1369.22L682.03,1369.22z M708.1,1354.24l20.53,12.03l20.74-12.03l-20.74-11.96L708.1,1354.24L708.1,1354.24z    M733.89,1339.4l20.57-12.03l20.61,12.03l-20.61,11.92L733.89,1339.4L733.89,1339.4z M759.81,1324.5l20.59,11.84l20.58-11.84   l-20.58-12.04L759.81,1324.5L759.81,1324.5z M798.58,1302.05l20.6,11.95l20.78-11.95l-20.78-11.91L798.58,1302.05L798.58,1302.05z    M745.49,1396.28l20.8,11.85l20.54-11.85l-20.54-12.02L745.49,1396.28L745.49,1396.28z M771.56,1381.23l20.61-12l20.62,12   l-20.62,11.97L771.56,1381.23L771.56,1381.23z M797.24,1366.28l20.81,11.92l20.6-11.92l-20.6-12.03L797.24,1366.28L797.24,1366.28z    M823.32,1351.32l20.59-11.73l20.6,11.73l-20.6,11.91L823.32,1351.32L823.32,1351.32z M849.08,1336.34l20.79-11.84l20.51,11.84   l-20.51,12.09L849.08,1336.34L849.08,1336.34z M874.14,1322.06l20.84-12.07l20.5,12.07l-20.5,11.91L874.14,1322.06L874.14,1322.06z    M900.01,1306.8l20.64-11.79l20.78,11.79l-20.78,12.15L900.01,1306.8L900.01,1306.8z M668.46,1411.44l20.63-11.74l20.68,11.74   l-20.68,12.03L668.46,1411.44L668.46,1411.44z M693.95,1426.19l46.5-26.79l20.64,11.89l-46.46,26.68L693.95,1426.19L693.95,1426.19   z M719.46,1440.91l20.73,11.85l46.47-26.72L766,1414.06L719.46,1440.91L719.46,1440.91z M770.54,1470.49l46.54-27.05l20.68,12.07   l-46.6,26.87L770.54,1470.49L770.54,1470.49z M822.22,1440.6l20.68,11.98l20.72-11.98l-20.72-11.94L822.22,1440.6L822.22,1440.6z    M848.3,1425.61l20.55-11.9l20.72,11.9l-20.72,11.88L848.3,1425.61L848.3,1425.61z M1054.48,1306.73l20.83-12.05l20.52,12.05   l-20.52,12.01L1054.48,1306.73L1054.48,1306.73z M745.11,1455.67l20.66,11.79l46.53-26.74l-20.81-11.88L745.11,1455.67   L745.11,1455.67z M796.79,1425.87l20.71-11.88l20.66,11.88l-20.66,12L796.79,1425.87L796.79,1425.87z M822.73,1410.72l20.62,11.96   l20.68-11.96l-20.68-11.72L822.73,1410.72L822.73,1410.72z M848.57,1395.84l20.78-11.9l20.68,11.9l-20.68,11.96L848.57,1395.84   L848.57,1395.84z M874.62,1380.94l20.56-11.83l20.49,11.83l-20.49,12.04L874.62,1380.94L874.62,1380.94z M900.42,1366.1   l20.62-12.06l20.64,12.06l-20.64,11.78L900.42,1366.1L900.42,1366.1z M925.49,1351.6l20.76-12l20.56,12l-20.56,11.85L925.49,1351.6   L925.49,1351.6z M951.41,1336.49l20.69-11.99l20.46,11.99l-20.46,11.94L951.41,1336.49L951.41,1336.49z M977.44,1321.55   l20.55-11.86l20.62,11.86l-20.62,11.9L977.44,1321.55L977.44,1321.55z M1003.2,1306.61l20.72-11.93l20.52,11.93l-20.52,11.89   L1003.2,1306.61L1003.2,1306.61z M771,1410.72l20.49-11.72l20.81,11.72l-20.81,11.96L771,1410.72L771,1410.72z M796.79,1395.84   l20.71,11.96l20.66-11.96l-20.66-11.9L796.79,1395.84L796.79,1395.84z M822.73,1380.94l20.62-11.83l20.68,11.83l-20.68,12.04   L822.73,1380.94L822.73,1380.94z M848.57,1366.1l20.78-12.06l20.68,12.06l-20.68,11.78L848.57,1366.1L848.57,1366.1z    M874.62,1350.96l20.56-11.92l20.49,11.92l-20.49,11.98L874.62,1350.96L874.62,1350.96z M899.67,1336.49l20.52-11.99l20.68,11.99   l-20.68,11.94L899.67,1336.49L899.67,1336.49z M925.49,1321.55l20.76-11.86l20.56,11.86l-20.56,11.9L925.49,1321.55L925.49,1321.55   z M951.41,1306.61l20.69-11.93l20.46,11.93l-20.46,11.89L951.41,1306.61L951.41,1306.61z M694.34,1396.35l20.61-11.72l20.57,11.72   l-20.57,12.03L694.34,1396.35L694.34,1396.35z M720.24,1381.46l20.62,11.81l20.68-11.81l-20.68-11.84L720.24,1381.46   L720.24,1381.46z M746.05,1366.81l20.62-12.01l20.66,12.01l-20.66,11.83L746.05,1366.81L746.05,1366.81z M771.98,1351.77   l20.76,11.83l20.6-11.83l-20.6-11.84L771.98,1351.77L771.98,1351.77z M797.84,1336.63l20.68-11.79l20.69,11.79l-20.69,11.94   L797.84,1336.63L797.84,1336.63z M823.86,1321.85l20.53-11.86l20.81,11.86l-20.81,11.73L823.86,1321.85L823.86,1321.85z    M848.92,1307.19l20.54,11.94l20.62-11.94l-20.62-11.83L848.92,1307.19z" clip-rule="evenodd"/></g><g><path fill="#80a8d7" fill-rule="evenodd" d="M1012.81,784.09c-1.15-0.72-3.3-0.72-5.68,0.42l-439.86,254.12c-4.58,2.53-8.09,8.62-8.09,13.87v312.02   c0,2.6,0.92,4.49,2.28,5.1v0.22l13.07,7.4l2.91-14.02l429.7-247.91c4.53-2.66,7.85-8.69,7.85-13.83V802.33l2.6,2.11l8.59-12.5   l-13.17-7.85H1012.81z" clip-rule="evenodd"/></g><g><path fill="#8fb7e1" fill-rule="evenodd" d="M1020.4,792.22l-440.05,253.97c-4.46,2.67-7.96,8.75-7.96,13.92v312.17c0,4.97,3.5,7.16,7.96,4.69   l440.05-254.11c4.35-2.49,7.84-8.77,7.84-13.75l-0.19-312.22C1028.05,791.69,1024.75,789.55,1020.4,792.22z" clip-rule="evenodd"/></g><g><polygon fill="#80a8d7" fill-rule="evenodd" points="1001.06 1081.36 591.6 1317.67 591.6 1325.41 1008.12 1084.94 1008.12 821.64 1001.06 825.76" clip-rule="evenodd"/></g><g><polygon fill="#b8d9f2" fill-rule="evenodd" points="591.6 1317.67 1001.06 1081.36 1001.06 825.76 591.39 1062.11" clip-rule="evenodd"/></g><g><polygon fill="#b8d9f2" fill-rule="evenodd" points="906.24 1170.83 1008.12 1111.94 1008.12 1100.7 906.24 1159.37" clip-rule="evenodd"/></g><g><path fill="#e4f3fc" fill-rule="evenodd" d="M564.29,884.83c-8.59-4.96-17.03-7.25-24.44-6.62l370.52-213.92c7.4-0.62,15.85,1.67,24.43,6.61   c27.1,15.65,49.14,53.82,49.13,85.12l0.01,335.24l-370.52,213.78l-0.01-335.1C613.43,938.65,591.38,900.47,564.29,884.83z" clip-rule="evenodd"/></g><g><path fill="#b8d9f2" fill-rule="evenodd" d="M765.03,1165.38l70.58-40.74c8.86-5.12,16.05-0.97,16.05,9.28c0,10.25-7.2,22.69-16.06,27.82l-70.57,40.76   c-8.88,5.12-16.08,0.98-16.08-9.28C748.95,1182.97,756.15,1170.5,765.03,1165.38z" clip-rule="evenodd"/></g><g><path fill="#b8d9f2" fill-rule="evenodd" d="M817.18,1153.74c-2.54,1.47-3.76,0.87-3.76-1.58c0-2.46,1.38-4.16,3.89-5.61l2.12-1.22v7.11L817.18,1153.74   L817.18,1153.74z M824.04,1138.45l-7.01,4.04c-4.48,2.59-8.1,6.56-8.1,12.26c0,5.53,3.66,5.88,7.97,3.39l2.53-1.46v7.99l4.61-2.65   V1138.45z" clip-rule="evenodd"/></g><g><path fill="#b8d9f2" fill-rule="evenodd" d="M802.7,1164.56l-4.34,2.51l0.47-2.45c0.56-2.66,1.12-5.78,1.66-8.55l0.12-0.06c0.51,2.2,1.04,4.64,1.6,6.66   L802.7,1164.56L802.7,1164.56z M803.21,1150.46l-5.54,3.2l-6.38,27.25l4.88-2.82l1.25-6.33l6.23-3.6l1.25,4.88l4.69-2.71   L803.21,1150.46z" clip-rule="evenodd"/></g><g><path fill="#b8d9f2" fill-rule="evenodd" d="M786.16,1175.48l6.17-18.73l-4.95,2.85l-1.8,6.47c-0.57,2.09-1.1,4.03-1.67,6.15l-0.12,0.08   c-0.6-1.47-1.16-2.76-1.72-4.21l-1.85-4.35l-4.82,2.78l6.17,11.63v8.36l4.59-2.64V1175.48z" clip-rule="evenodd"/></g><g><polygon fill="#b8d9f2" fill-rule="evenodd" points="955.1 779.82 955.1 805.97 613.42 1003.28 613.42 977.11" clip-rule="evenodd"/></g><g><polygon fill="#b8d9f2" fill-rule="evenodd" points="966.78 799.24 966.78 773.08 983.94 763.19 983.94 789.33" clip-rule="evenodd"/></g><g><polygon fill="#daecf8" fill-rule="evenodd" points="623.55 1230.24 976.17 1026.64 976.17 815.53 623.55 1019.1" clip-rule="evenodd"/></g><g><polygon fill="#fff" fill-rule="evenodd" points="627.07 1041.28 973.15 841.48 973.15 820.61 627.07 1020.43" clip-rule="evenodd"/></g><g><polygon fill="#fff" fill-rule="evenodd" points="627.07 1083 973.15 883.18 973.15 862.32 627.07 1062.11" clip-rule="evenodd"/></g><g><polygon fill="#fff" fill-rule="evenodd" points="627.07 1124.7 973.15 924.89 973.15 904.01 627.07 1103.82" clip-rule="evenodd"/></g><g><polygon fill="#fff" fill-rule="evenodd" points="627.07 1166.4 973.15 966.57 973.15 945.71 627.07 1145.52" clip-rule="evenodd"/></g><g><polygon fill="#fff" fill-rule="evenodd" points="627.07 1208.11 973.15 1008.29 973.15 987.41 627.07 1187.22" clip-rule="evenodd"/></g><g><path fill="#a1c6e9" fill-rule="evenodd" d="M673.99,1006.63l-29.28,16.89c-1.36,0.78-2.46,0.13-2.46-1.44c0-1.57,1.1-3.48,2.46-4.28l29.28-16.9   c1.37-0.79,2.47-0.15,2.47,1.42C676.46,1003.9,675.36,1005.81,673.99,1006.63L673.99,1006.63z M644.71,1205.45l29.28-16.89   c1.37-0.79,2.47-0.15,2.47,1.43c0,1.56-1.11,3.49-2.47,4.29l-29.28,16.9c-1.36,0.79-2.46,0.14-2.46-1.43   C642.25,1208.17,643.35,1206.26,644.71,1205.45L644.71,1205.45z M644.71,1184.6c-1.36,0.82-2.46,2.72-2.46,4.31   c0,1.56,1.1,2.19,2.46,1.42l29.28-16.9c1.37-0.8,2.47-2.71,2.47-4.29c0-1.57-1.11-2.2-2.47-1.42L644.71,1184.6L644.71,1184.6z    M644.71,1163.76l29.28-16.9c1.37-0.8,2.47-0.14,2.47,1.41c0,1.57-1.11,3.5-2.47,4.29l-29.28,16.91c-1.36,0.79-2.46,0.13-2.46-1.45   C642.25,1166.46,643.35,1164.55,644.71,1163.76L644.71,1163.76z M644.71,1142.91c-1.36,0.8-2.46,2.71-2.46,4.29   c0,1.57,1.1,2.22,2.46,1.44l29.28-16.92c1.37-0.8,2.47-2.71,2.47-4.29c0-1.56-1.11-2.2-2.47-1.41L644.71,1142.91L644.71,1142.91z    M644.71,1122.05l29.28-16.89c1.37-0.78,2.47-0.13,2.47,1.43c0,1.57-1.11,3.48-2.47,4.28l-29.28,16.92   c-1.36,0.76-2.46,0.12-2.46-1.44C642.25,1124.76,643.35,1122.85,644.71,1122.05L644.71,1122.05z M644.71,1101.21   c-1.36,0.79-2.46,2.71-2.46,4.28c0,1.58,1.1,2.2,2.46,1.44l29.28-16.9c1.37-0.81,2.47-2.71,2.47-4.29c0-1.58-1.11-2.2-2.47-1.42   L644.71,1101.21L644.71,1101.21z M644.71,1080.36l29.28-16.91c1.37-0.78,2.47-0.14,2.47,1.43c0,1.57-1.11,3.49-2.47,4.3   l-29.28,16.89c-1.36,0.79-2.46,0.15-2.46-1.44C642.25,1083.07,643.35,1081.16,644.71,1080.36L644.71,1080.36z M644.71,1059.51   c-1.36,0.81-2.46,2.73-2.46,4.29c0,1.56,1.1,2.2,2.46,1.43l29.28-16.91c1.37-0.8,2.47-2.71,2.47-4.29c0-1.57-1.11-2.2-2.47-1.42   L644.71,1059.51L644.71,1059.51z M644.71,1038.66c-1.36,0.78-2.46,2.71-2.46,4.27c0,1.56,1.1,2.21,2.46,1.45l29.28-16.92   c1.37-0.79,2.47-2.71,2.47-4.29c0-1.57-1.11-2.21-2.47-1.41L644.71,1038.66z" clip-rule="evenodd"/></g><g><path fill="#a1c6e9" fill-rule="evenodd" d="M956.28,947.89l-98.96,57.14c-1.36,0.78-2.46,0.16-2.46-1.42c0-1.58,1.1-3.49,2.46-4.29l98.96-57.15   c1.36-0.76,2.47-0.13,2.47,1.43C958.75,945.18,957.64,947.11,956.28,947.89L956.28,947.89z M856.92,1041.24   c-1.37,0.82-2.47,2.71-2.47,4.3c0,1.58,1.11,2.19,2.47,1.44l99.36-57.38c1.36-0.79,2.47-2.71,2.47-4.28s-1.11-2.2-2.47-1.42   L856.92,1041.24L856.92,1041.24z M956.28,968.75c1.36-0.79,2.47-2.71,2.47-4.28c0-1.58-1.11-2.21-2.47-1.42l-76.87,44.37   c-1.36,0.8-2.46,2.69-2.46,4.3c0,1.56,1.1,2.2,2.46,1.42L956.28,968.75L956.28,968.75z M956.28,843.65l-61.21,35.33   c-1.36,0.8-2.46,0.16-2.46-1.41c0-1.58,1.1-3.5,2.46-4.28l61.21-35.35c1.36-0.79,2.47-0.16,2.47,1.44   C958.75,840.95,957.64,842.86,956.28,843.65L956.28,843.65z M895.07,1060.93l61.21-35.34c1.36-0.78,2.47-0.15,2.47,1.41   c0,1.59-1.11,3.52-2.47,4.29l-61.21,35.34c-1.36,0.8-2.46,0.15-2.46-1.43C892.61,1063.63,893.71,1061.72,895.07,1060.93   L895.07,1060.93z M956.28,1010.44c1.36-0.76,2.47-2.71,2.47-4.27c0-1.57-1.11-2.21-2.47-1.42l-47.55,27.45   c-1.37,0.78-2.48,2.7-2.48,4.27c0,1.56,1.1,2.21,2.48,1.43L956.28,1010.44L956.28,1010.44z M956.28,927.04   c1.36-0.79,2.47-2.7,2.47-4.27c0-1.58-1.11-2.21-2.47-1.43l-61.21,35.34c-1.36,0.81-2.47,2.7-2.46,4.29c0,1.57,1.1,2.19,2.46,1.43   L956.28,927.04L956.28,927.04z M835.74,949.23c-1.37,0.8-2.48,2.71-2.48,4.28c0,1.58,1.11,2.21,2.48,1.44l120.54-69.59   c1.36-0.8,2.47-2.72,2.47-4.29c0-1.58-1.11-2.2-2.47-1.43L835.74,949.23L835.74,949.23z M956.28,906.19   c1.36-0.79,2.47-2.71,2.47-4.28c0-1.58-1.11-2.2-2.47-1.42l-76.48,44.16c-1.37,0.8-2.47,2.7-2.47,4.29c0,1.58,1.1,2.2,2.47,1.43   L956.28,906.19L956.28,906.19z M956.28,864.5c1.36-0.79,2.47-2.71,2.47-4.28c0-1.58-1.11-2.22-2.47-1.44l-93.6,54.05   c-1.38,0.8-2.47,2.71-2.47,4.28s1.09,2.21,2.47,1.44L956.28,864.5z" clip-rule="evenodd"/></g><g><path fill="#4c6db3" fill-rule="evenodd" d="M1346.87,1742.01c0,3.86-3.12,6.98-6.98,6.98c-3.85,0-6.98-3.12-6.98-6.98c0-3.85,3.13-6.98,6.98-6.98    C1343.75,1735.03,1346.87,1738.16,1346.87,1742.01z" clip-rule="evenodd"/><path fill="#101f3b" fill-rule="evenodd" d="M1261.58,1570.37c-15.13,3.43-17.72,15.32-12.08,25.83l0.6,0.96l17.4,24.63l0.35,0.54    c6.39,10.95,14.85,16.35,25.78,15.13c1.06-0.12,2.1-0.41,3.06-0.87c9.29-4.4,10.46-11.11,7.64-18.96l-0.15-14.75l-4.36,0.69    l-5.33-28.37c-0.82-4.38-4.84-7.43-9.28-7.03l-22.43,2.01C1262.38,1570.23,1261.97,1570.29,1261.58,1570.37z" clip-rule="evenodd"/><path fill="#101f3b" fill-rule="evenodd" d="M1359.45,1560.76v-77.23l-61.97-15.06c-19.19-4.67-37.73,10.07-37.29,29.81c0.76,33.78,5.89,70.07,3.77,100.2    c0,18.37,31.95,23.84,44.31,10.6c4.64-26.97,11.46-41.65,4.74-69.94L1359.45,1560.76z" clip-rule="evenodd"/><path fill="#101f3b" fill-rule="evenodd" d="M1234.15,1636.72c5.77,11.23,4.16,29.52-0.12,37.49c-11.46,3.53-20.9,3.8-27.15-1.06    c-21.11-2.56-33.13-0.46-43.84-4.22c-11.39-4-19.09-7.97-24.31-19.91c-1.97-5.31,1.76-14.81,11.29-15.66    c17.65,0.35,33.54-0.13,42.42-3.92l16.7-26.55l25.98,23.18L1234.15,1636.72z" clip-rule="evenodd"/><path fill="#4c6db3" fill-rule="evenodd" d="M1238.7,1710.11c0,3.85-3.12,6.97-6.98,6.97c-3.85,0-6.98-3.13-6.98-6.97c0-3.86,3.13-6.98,6.98-6.98    C1235.58,1703.13,1238.7,1706.25,1238.7,1710.11z" clip-rule="evenodd"/><path fill="#4c6db3" fill-rule="evenodd" d="M1430.8,1693c0,3.86-3.13,6.98-6.98,6.98c-3.85,0-6.98-3.12-6.98-6.98c0-3.85,3.13-6.98,6.98-6.98    C1427.68,1686.02,1430.8,1689.15,1430.8,1693z" clip-rule="evenodd"/><path fill="#242424" fill-rule="evenodd" d="M1378.63,1629.23c0,3.85-3.12,6.98-6.98,6.98c-3.85,0-6.98-3.12-6.98-6.98c0-3.86,3.13-6.98,6.98-6.98    C1375.5,1622.25,1378.63,1625.38,1378.63,1629.23z" clip-rule="evenodd"/><path fill="#4c6db3" fill-rule="evenodd" d="M1255.94,1641.99c0,3.86-3.13,6.98-6.98,6.98c-3.86,0-6.98-3.12-6.98-6.98c0-3.85,3.12-6.98,6.98-6.98    C1252.81,1635.02,1255.94,1638.14,1255.94,1641.99z" clip-rule="evenodd"/><path fill="#4c6db3" fill-rule="evenodd" d="M1343.59,1670.78l34.04-45.51v-3.01l-10.01,0.07l-43.77,42.65c-2.98-0.03-5.95,0.24-8.8,0.81l-64.46-32.76    l-7.95,1.58v3.01l56.74,37.22c-0.98,1.64-1.46,3.37-1.4,5.08l-73.87,22.26v3.01l5.1,5.79l78.84-19.65    c2.44,1.07,5.13,1.86,7.94,2.35l18.8,48.35l11.1-1.01v-3.02l-8.02-46.34c1.21-0.49,2.37-1.03,3.45-1.65    c1.08-0.63,2.02-1.3,2.85-1.99l85.5,4.62l1.76-6.41v-3.01l-83.76-7.84C1346.81,1673.74,1345.43,1672.19,1343.59,1670.78z" clip-rule="evenodd"/><path fill="#6e96ce" fill-rule="evenodd" d="M1343.59,1658.71l34.04-36.46l-10.01-2.95l-43.77,33.6c-2.98-0.04-5.95,0.24-8.8,0.8l-64.46-23.71    l-7.95,4.59l56.74,28.16c-0.98,1.65-1.46,3.37-1.4,5.08l-73.87,34.32l5.1,5.78l78.84-28.71c2.44,1.07,5.13,1.86,7.94,2.35    l18.8,57.41l11.1-1.02l-8.02-58.41c1.21-0.48,2.37-1.02,3.45-1.65c1.08-0.62,2.02-1.3,2.85-1.99l85.5,13.68l1.76-6.41l-83.76-19.9    C1346.81,1661.68,1345.43,1660.12,1343.59,1658.71z" clip-rule="evenodd"/><path fill="#557abc" fill-rule="evenodd" d="M1334.45,1601.06c-0.59-0.61-1.33-1.18-2.23-1.69c-5.31-3.07-13.92-3.07-19.24,0    c-0.89,0.52-1.63,1.09-2.22,1.69H1309v64.06c0,2.01,1.33,4.02,3.98,5.55c5.32,3.07,13.93,3.07,19.24,0    c2.66-1.53,3.99-3.54,3.99-5.55v-64.06H1334.45z" clip-rule="evenodd"/><path fill="#454646" fill-rule="evenodd" d="M1332.23,1595.5c5.31,3.07,5.31,8.04,0,11.11c-5.31,3.07-13.92,3.07-19.24,0c-5.31-3.07-5.31-8.04,0-11.1    C1318.3,1592.43,1326.92,1592.43,1332.23,1595.5z" clip-rule="evenodd"/><path fill="#969697" fill-rule="evenodd" d="M1339.97,1556.08c-1.95-1.99-4.98-3.72-9.2-4.86c-5.33-1.45-11-1.45-16.33,0c-4.22,1.15-7.25,2.88-9.19,4.86    h-2.58v48.69c0,4.09,3.74,8.17,11.22,10.39c5.67,1.69,11.77,1.69,17.45,0c7.47-2.23,11.21-6.31,11.21-10.39v-48.69H1339.97z" clip-rule="evenodd"/><path fill="#454646" fill-rule="evenodd" d="M1331.33,1545.69c14.95,4.44,14.95,16.33,0,20.77c-5.67,1.69-11.78,1.69-17.45,0    c-14.96-4.44-14.96-16.33,0-20.77C1319.56,1544.01,1325.66,1544.01,1331.33,1545.69z" clip-rule="evenodd"/><path fill="#6e96ce" fill-rule="evenodd" d="M1352.89,1665.83l94.19-54.71c1.56-0.9,2.53-2.85,2.52-5.61l-0.03-12.79c-0.01-5.52-3.91-12.23-8.71-14.98    l-104.45-59.94c-2.4-1.38-4.57-1.5-6.13-0.59l-94.19,54.71L1352.89,1665.83z" clip-rule="evenodd"/><path fill="#4c6db3" fill-rule="evenodd" d="M1242.3,1605.29l104.46,59.95c4.79,2.75,8.66,0.5,8.65-5.02l-0.03-12.79c-0.02-5.52-3.91-12.23-8.71-14.98    l-104.46-59.95c-4.79-2.75-8.66-0.5-8.65,5.03l0.03,12.79C1233.61,1595.84,1237.51,1602.55,1242.3,1605.29z" clip-rule="evenodd"/><path fill="#1c2f5c" fill-rule="evenodd" d="M1188.84,1630.7c0,18.38,35.93,26.71,48.29,13.46c4.64-26.97,7.48-44.51,0.76-72.8l77.88,36.24l70.59-67.06    l-164.01-39.86c-19.19-4.66-37.73,10.07-37.28,29.82C1185.83,1564.27,1190.95,1600.56,1188.84,1630.7z" clip-rule="evenodd"/><path fill="#8fb7e1" fill-rule="evenodd" d="M1009.68,1507.98c0,3.11,2.19,6.89,4.88,8.44c1.35,0.78,2.57,0.85,3.45,0.34l131.43-75.88    c0.88-0.51,1.43-1.6,1.43-3.16c0-3.11-2.19-6.89-4.88-8.44c-1.35-0.78-2.56-0.85-3.45-0.34l-131.43,75.88    C1010.23,1505.34,1009.68,1506.42,1009.68,1507.98z" clip-rule="evenodd"/><path fill="#454646" fill-rule="evenodd" d="M1397.06,1383.55c-4.33-2.5-11.36-2.5-15.69,0c-2.16,1.25-3.25,2.89-3.25,4.53l0,211.85    c0,1.64,1.08,3.28,3.25,4.53c4.33,2.5,11.35,2.5,15.69,0c2.16-1.25,3.25-2.89,3.25-4.53v-211.85    C1400.3,1386.44,1399.22,1384.8,1397.06,1383.55z" clip-rule="evenodd"/><path fill="#8fb7e1" fill-rule="evenodd" d="M1016.71,1443.84c-4.33-2.5-11.35-2.5-15.69,0c-2.16,1.25-3.25,2.89-3.25,4.53v211.85    c0,1.64,1.09,3.28,3.25,4.53c4.33,2.51,11.35,2.51,15.69,0c2.16-1.25,3.24-2.88,3.24-4.53v-211.85    C1019.95,1446.72,1018.87,1445.09,1016.71,1443.84z" clip-rule="evenodd"/><path fill="#454646" fill-rule="evenodd" d="M1256.94,1303.31c-4.33-2.5-11.35-2.5-15.68,0c-2.17,1.25-3.25,2.89-3.25,4.53v211.86    c0,1.64,1.09,3.28,3.25,4.53c4.33,2.5,11.35,2.5,15.68,0c2.17-1.25,3.25-2.89,3.25-4.53v-211.86    C1260.19,1306.2,1259.11,1304.56,1256.94,1303.31z" clip-rule="evenodd"/><polygon fill="#80a8d7" fill-rule="evenodd" points="1408.06 1399.35 1147.57 1549.75 988.82 1458.09 988.82 1444.87 1249.31 1307.7 1408.06 1386.13" clip-rule="evenodd"/><polygon fill="#a1c6e9" fill-rule="evenodd" points="1408.06 1386.13 1147.57 1536.52 988.82 1444.87 1249.31 1294.47" clip-rule="evenodd"/><polygon fill="#557abc" fill-rule="evenodd" points="1295.55 1412.08 1186.88 1474.82 1118.2 1435.17 1118.2 1431.35 1226.86 1372.43 1295.55 1408.27" clip-rule="evenodd"/><polygon fill="#80a8d7" fill-rule="evenodd" points="1295.55 1408.27 1186.88 1471.01 1118.2 1431.35 1226.86 1368.62" clip-rule="evenodd"/><path fill="#557abc" fill-rule="evenodd" d="M1144.1,1423.32l6.67-3.85l5.09,2.93l-6.67,3.86L1144.1,1423.32L1144.1,1423.32z M1164.9,1435.33l6.67-3.85    l5.09,2.94l-6.67,3.85L1164.9,1435.33L1164.9,1435.33z M1168.81,1446.55l6.67-3.86l5.09,2.94l-6.67,3.85L1168.81,1446.55    L1168.81,1446.55z M1136.35,1427.8l5.08,2.94l6.67-3.85l-5.09-2.94L1136.35,1427.8L1136.35,1427.8z M1145.47,1433.07l6.67-3.85    l5.09,2.94l-6.67,3.85L1145.47,1433.07L1145.47,1433.07z M1194.03,1425.25l6.67-3.85l5.09,2.94l-6.68,3.85L1194.03,1425.25    L1194.03,1425.25z M1180.43,1426.37l6.67-3.85l5.09,2.93l-6.67,3.85L1180.43,1426.37L1180.43,1426.37z M1166.83,1427.48l6.67-3.85    l5.09,2.94l-6.67,3.85L1166.83,1427.48L1166.83,1427.48z M1172.77,1437.52l-2.03,1.17l-7.77,4.48l5.09,2.94l7.76-4.49l2.03-1.18    l4.64-2.68l-5.09-2.94L1172.77,1437.52L1172.77,1437.52z M1176.58,1442.07l5.09,2.94l6.68-3.85l-5.09-2.94L1176.58,1442.07    L1176.58,1442.07z M1157.14,1439.81l5.09,2.94l6.67-3.85l-5.09-2.94L1157.14,1439.81L1157.14,1439.81z M1151.3,1436.44l5.09,2.94    l6.67-3.85l-5.09-2.94L1151.3,1436.44L1151.3,1436.44z M1159.07,1431.96l5.09,2.94l6.66-3.85l-5.08-2.94L1159.07,1431.96    L1159.07,1431.96z M1153.23,1428.59l5.09,2.94l6.67-3.85l-5.09-2.94L1153.23,1428.59L1153.23,1428.59z M1213.97,1382.99l6.67-3.85    l5.09,2.94l-6.67,3.86L1213.97,1382.99L1213.97,1382.99z M1228.93,1391.63l5.83,3.37l-7.77,4.48l5.09,2.94l7.76-4.48l1.95-1.13    l4.73-2.73l-4.34-2.5l-0.76-0.44l-5.83-3.37L1228.93,1391.63L1228.93,1391.63z M1239.52,1398.99l7.75-4.48l5.1,2.94l-7.77,4.48    l-1.14,0.66l-5.54,3.19l-5.08-2.94l5.53-3.19L1239.52,1398.99L1239.52,1398.99z M1238.68,1406.22l6.67-3.86l5.1,2.94l-6.68,3.85    L1238.68,1406.22L1238.68,1406.22z M1246.44,1401.73l6.67-3.85l5.09,2.93l-6.67,3.86L1246.44,1401.73L1246.44,1401.73z     M1230.92,1410.7l5.09,2.94l6.68-3.85l-5.09-2.94L1230.92,1410.7L1230.92,1410.7z M1226.49,1413.25l-3.33,1.93l-1.1,0.63    l-6.67,3.85l-1.09,0.63l-6.68,3.85l-1.09,0.63l-6.67,3.85l-7.77,4.48l5.09,2.94l7.77-4.48l6.67-3.85l1.09-0.63l6.67-3.85    l1.09-0.63l6.67-3.85l1.09-0.63l3.34-1.92l3.33-1.92l-5.09-2.94L1226.49,1413.25L1226.49,1413.25z M1225.08,1407.33l5.09,2.94    l6.68-3.85l-5.1-2.94L1225.08,1407.33L1225.08,1407.33z M1217.31,1411.81l6.67-3.85l5.09,2.94l-6.68,3.85L1217.31,1411.81    L1217.31,1411.81z M1209.55,1416.29l6.67-3.85l5.09,2.94l-6.67,3.85L1209.55,1416.29L1209.55,1416.29z M1201.79,1420.77l5.09,2.94    l6.67-3.85l-5.09-2.94L1201.79,1420.77L1201.79,1420.77z M1219.24,1403.96l6.67-3.85l5.09,2.94l-6.67,3.85L1219.24,1403.96    L1219.24,1403.96z M1211.48,1408.44l6.67-3.85l5.09,2.94l-6.67,3.85L1211.48,1408.44L1211.48,1408.44z M1203.71,1412.92l6.68-3.85    l5.09,2.94l-6.67,3.85L1203.71,1412.92L1203.71,1412.92z M1195.95,1417.4l6.67-3.85l5.09,2.94l-6.67,3.85L1195.95,1417.4    L1195.95,1417.4z M1188.2,1421.89l5.08,2.94l6.68-3.85l-5.1-2.94L1188.2,1421.89L1188.2,1421.89z M1221.16,1396.11l6.68-3.85    l5.08,2.94l-6.67,3.85L1221.16,1396.11L1221.16,1396.11z M1213.4,1400.59l6.68-3.85l5.09,2.94l-6.67,3.85L1213.4,1400.59    L1213.4,1400.59z M1205.64,1405.07l5.09,2.93l6.68-3.84l-5.09-2.94L1205.64,1405.07L1205.64,1405.07z M1197.88,1409.55l6.67-3.85    l5.09,2.94l-6.67,3.85L1197.88,1409.55L1197.88,1409.55z M1190.12,1414.03l6.67-3.85l5.09,2.94l-6.67,3.85L1190.12,1414.03    L1190.12,1414.03z M1182.35,1418.51l5.09,2.94l6.67-3.85l-5.09-2.94L1182.35,1418.51L1182.35,1418.51z M1174.59,1423l5.09,2.94    l6.67-3.85l-5.09-2.94L1174.59,1423L1174.59,1423z M1223.09,1388.26l5.09,2.94l6.67-3.85l-5.09-2.94L1223.09,1388.26    L1223.09,1388.26z M1215.33,1392.74l6.68-3.85l5.09,2.94l-6.67,3.85L1215.33,1392.74L1215.33,1392.74z M1207.57,1397.22l5.09,2.93    l6.67-3.85l-5.09-2.94L1207.57,1397.22L1207.57,1397.22z M1199.81,1401.7l5.09,2.93l6.67-3.85l-5.09-2.94L1199.81,1401.7    L1199.81,1401.7z M1192.04,1406.18l5.09,2.94l6.67-3.85l-5.1-2.94L1192.04,1406.18L1192.04,1406.18z M1184.28,1410.66l6.67-3.85    l5.09,2.94l-6.68,3.85L1184.28,1410.66L1184.28,1410.66z M1176.52,1415.15l6.68-3.85l5.08,2.94l-6.67,3.85L1176.52,1415.15    L1176.52,1415.15z M1168.76,1419.63l5.09,2.94l6.67-3.85l-5.09-2.94L1168.76,1419.63L1168.76,1419.63z M1160.99,1424.11l5.09,2.94    l6.67-3.85l-5.09-2.94L1160.99,1424.11L1160.99,1424.11z M1206.2,1387.46l5.09,2.94l6.67-3.85l-5.09-2.94L1206.2,1387.46    L1206.2,1387.46z M1198.44,1391.95l6.67-3.85l5.09,2.94l-6.67,3.85L1198.44,1391.95L1198.44,1391.95z M1190.68,1396.43l6.68-3.85    l5.09,2.94l-6.67,3.85L1190.68,1396.43L1190.68,1396.43z M1182.91,1400.91l6.68-3.85l5.09,2.94l-6.67,3.85L1182.91,1400.91    L1182.91,1400.91z M1175.15,1405.4l5.09,2.94l6.67-3.85l-5.09-2.94L1175.15,1405.4L1175.15,1405.4z M1167.39,1409.88l5.09,2.94    l6.68-3.85l-5.09-2.94L1167.39,1409.88L1167.39,1409.88z M1159.63,1414.36l6.68-3.85l5.08,2.94l-6.67,3.85L1159.63,1414.36    L1159.63,1414.36z M1151.87,1418.84l5.09,2.94l6.67-3.85l-5.09-2.94L1151.87,1418.84z" clip-rule="evenodd"/><polygon fill="#b0b0af" fill-rule="evenodd" points="1172.67 1430.85 1179.34 1427 1184.43 1429.93 1177.76 1433.79" clip-rule="evenodd"/><polygon fill="#b0b0af" fill-rule="evenodd" points="1178.51 1434.22 1185.17 1430.37 1190.26 1433.31 1183.59 1437.16" clip-rule="evenodd"/><polygon fill="#b0b0af" fill-rule="evenodd" points="1186.26 1429.74 1192.93 1425.88 1198.03 1428.82 1191.35 1432.68" clip-rule="evenodd"/><polygon fill="#b0b0af" fill-rule="evenodd" points="1184.34 1437.59 1191.01 1433.74 1196.1 1436.68 1189.43 1440.53" clip-rule="evenodd"/><polygon fill="#557abc" fill-rule="evenodd" points="1243.9 1428.86 1222.48 1441.23 1209.03 1433.47 1230.45 1421.1" clip-rule="evenodd"/><polygon fill="#557abc" fill-rule="evenodd" points="1223.85 1367.63 1118.2 1431.35 1115.18 1430.37 1094.38 1352.64 1203.05 1289.91 1206.06 1290.9" clip-rule="evenodd"/><polygon fill="#6e96ce" fill-rule="evenodd" points="1226.86 1368.62 1118.2 1431.35 1097.4 1353.64 1206.06 1290.9" clip-rule="evenodd"/><polygon fill="#fff" fill-rule="evenodd" points="1101.21 1355.22 1204.01 1295.86 1223.05 1367.04 1120.25 1426.39" clip-rule="evenodd"/><polygon fill="#6e96ce" fill-rule="evenodd" points="1126.35 1355.81 1127.69 1361.03 1183.03 1329.09 1181.58 1323.92" clip-rule="evenodd"/><polygon fill="#557abc" fill-rule="evenodd" points="1186.46 1321.1 1181.58 1323.92 1183.03 1329.09 1187.88 1326.29" clip-rule="evenodd"/><polygon fill="#b8d9f2" fill-rule="evenodd" points="1198.66 1366.02 1187.88 1326.29 1127.69 1361.03 1137.95 1401.07" clip-rule="evenodd"/><path fill="#6e96ce" fill-rule="evenodd" d="M1141.3,1394.1l-0.71-0.41c-0.23-0.39-0.1-0.89,0.3-1.12l50.55-29.18c0.39-0.23,0.89-0.1,1.11,0.3    c0.23,0.39,0.09,0.89-0.3,1.12l-50.54,29.18L1141.3,1394.1z" clip-rule="evenodd"/><path fill="#6e96ce" fill-rule="evenodd" d="M1139.72,1388.09l-0.7-0.41c-0.23-0.39-0.1-0.89,0.3-1.12l50.54-29.18c0.39-0.22,0.89-0.09,1.12,0.3    c0.23,0.39,0.09,0.89-0.3,1.12l-50.54,29.18L1139.72,1388.09z" clip-rule="evenodd"/><path fill="#6e96ce" fill-rule="evenodd" d="M1138.15,1382.09l-0.71-0.41c-0.23-0.39-0.09-0.89,0.3-1.12l50.55-29.18c0.39-0.23,0.89-0.09,1.12,0.3    c0.22,0.39,0.09,0.89-0.3,1.12l-50.55,29.18L1138.15,1382.09z" clip-rule="evenodd"/><path fill="#6e96ce" fill-rule="evenodd" d="M1136.57,1376.09l-0.71-0.41c-0.22-0.39-0.09-0.89,0.3-1.12l50.54-29.18c0.39-0.22,0.89-0.09,1.12,0.3    c0.23,0.39,0.09,0.89-0.3,1.12l-50.55,29.18L1136.57,1376.09z" clip-rule="evenodd"/><path fill="#6e96ce" fill-rule="evenodd" d="M1134.99,1370.08l-0.71-0.41c-0.23-0.39-0.09-0.89,0.3-1.12l50.55-29.18c0.39-0.23,0.89-0.09,1.11,0.3    c0.23,0.39,0.09,0.89-0.3,1.12l-50.54,29.18L1134.99,1370.08z" clip-rule="evenodd"/><path fill="#6e96ce" fill-rule="evenodd" d="M1133.42,1364.08l-0.71-0.41c-0.23-0.39-0.09-0.89,0.3-1.12l50.55-29.18c0.39-0.23,0.89-0.1,1.12,0.3    c0.23,0.39,0.1,0.89-0.3,1.12l-50.54,29.18L1133.42,1364.08z" clip-rule="evenodd"/><path fill="#f3a97d" fill-rule="evenodd" d="M1218.26,1481.08l-11.47-12.57l-7.06-1.87l-16.43-13.46l-7.83-4.3l-3.08,0.11h-4.3    c-4.09,0.33-4.75-4.08-0.78-4.99l7.72-1.02l8.5,2.03l0.44-2.03l-9.42-6.18l-5.67-1.4c-2.56,0.02-4-3.95-0.28-5.29l5.54-0.64    l3.53-2.07c1.78-1.05,3.87-1.45,5.9-1.15l3.81,0.57l4.98-3.13c1.67-1.05,3.79-1.02,5.44,0.07l7.9,5.26l8.97,7.9    c0,0,6.48-0.19,10.34,4.23c2.45,2.81,1.76,11.61,1.76,11.61l12.14,12.77L1218.26,1481.08z" clip-rule="evenodd"/><path fill="#f3a97d" fill-rule="evenodd" d="M1312.13,1391.24l-17.63-3.26l-21.25-17.25l-16.71-6.43l-10.8-1.3c-0.8-0.1-1.61,0.02-2.35,0.34l-2.24,0.97    h-2.76c-1.83,0-3.49,1.1-4.18,2.79l-3.04,1.49c-1.43,1.12-0.83,3.76,0.96,4.06l3.79,0l6.56,1.97l10.42,5.72l5.63,10.92    c0,0-1.29,2.36-1.77,2.48c-4.19,1.1-11.47,0.55-11.47,0.55l-3.75-0.66c-3.42,0.88-5.29,3.53-2.1,5.07l5.02,2.15l19.85,5.46h20.51    l20.85,5.63L1312.13,1391.24z" clip-rule="evenodd"/><path fill="#1f407c" fill-rule="evenodd" d="M1305.68,1384.95c-11.96,3.03-18.14,30.29-2.7,37.79l95.74,9.71v-50.3L1305.68,1384.95z" clip-rule="evenodd"/><path fill="#1f407c" fill-rule="evenodd" d="M1296.31,1443.7c11.96,25.59,23.1,66.51,17.47,88.02c-5.35,20.45-19.28,53.61-3.44,73.46    c23.62,20.19,110.32-10.58,117.05-53.62c2.94-37.05,0.88-78.08,2.86-125.73c0,0,2.98-40.88-27.13-52.11    c-8.68-3.23-26.53,1.84-26.53,1.84l-48.84,39.67l-17.41,5.78L1296.31,1443.7z" clip-rule="evenodd"/><path fill="#f3a97d" fill-rule="evenodd" d="M1320.07,1387.98l-14.76-10.58c-6.78-4.41-8.33-18.14-8.54-28.15l-0.45-20.99l4.72-12.9l48.72,1.76l9.46,33.5    l-8.68,31.7L1320.07,1387.98z" clip-rule="evenodd"/><path fill="#f3a97d" fill-rule="evenodd" d="M1321.93,1402.8l-5.79-25.57l38.55-10.14l10.89,15.66C1355.74,1396.05,1342.09,1402.13,1321.93,1402.8z" clip-rule="evenodd"/><path fill="#fff" fill-rule="evenodd" d="M1313.79,1415.24l7.45-15.79c19.85-4.57,35.87-15.35,38.65-23.88l13.85,1.65l-2.71,10.52L1313.79,1415.24z" clip-rule="evenodd"/><path fill="#1c2f5c" fill-rule="evenodd" d="M1305.68,1430.29c0,0,37.21-11.41,62.43-31.71c12.77-10.28,11.65-20.89,11.65-20.89    c-1.75-2.54-8.41-4.23-14.68-2.13c-1.78,16.12-33.46,27.74-48.03,32.17L1305.68,1430.29z" clip-rule="evenodd"/><path fill="#101f3b" fill-rule="evenodd" d="M1296.39,1331.69l11.57,11.08c1.89,1.81,3.03,4.24,3.23,6.84l0.79,10.46l6.37,5.79l-0.62,10.49    c0,0,10.58,14.17,30.26,7.09c13.71-4.93,11.59-7.41,16.07-31.28c2.82-15.03,3.11-29.81-11.01-41.65    c-12.85-10.78-40.6-10.45-51.38-0.5C1296.03,1315.2,1291.95,1324.87,1296.39,1331.69z" clip-rule="evenodd"/><path fill="#f3a97d" fill-rule="evenodd" d="M1320.64,1358.31c1.18,2.16,1.37,4.73,1.26,7.19c-0.08,2.24-0.44,4.61-1.86,6.36    c-1.42,1.75-4.19,2.55-5.98,1.17c-2.51-1.94-4.28-11.4-3.56-14.55C1311.71,1353.19,1318.42,1354.22,1320.64,1358.31z" clip-rule="evenodd"/><path fill="#1f407c" fill-rule="evenodd" d="M1205.25,1478.44c-4.3-11.91,11.24-30.44,24.48-24.81l30.45,24.81l36.13-34.74c0,0,12.18-4.3,23.76,8.27    c22.76,24.72,6.29,47.65,6.29,47.65c-20.08,13.46-39.97,25.11-59.42,32.82c-7.79,3.09-16.69,1.16-22.53-4.85    C1228.9,1511.63,1215.71,1495.28,1205.25,1478.44z" clip-rule="evenodd"/><path fill="#6e96ce" fill-rule="evenodd" d="M1381.81,1445.47l-1.91,83.04l-21.4,110.15l94.33-54.46c0.5-0.3,0.94-0.68,1.33-1.16    c22.09-27.49,44.99-76.38,37.47-176.66c-0.43-5.64-4.37-12.03-9.06-14.74c-2.5-1.45-4.78-1.58-6.43-0.62L1381.81,1445.47z" clip-rule="evenodd"/><path fill="#80a8d7" fill-rule="evenodd" d="M1338.47,1630.43l13.05,7.53c3.37,1.94,6.52,1.79,8.31-0.46c22.08-27.49,44.99-76.38,37.47-176.65    c-0.41-5.64-4.37-12.04-9.06-14.75c-4.77-2.75-8.73-0.78-9.07,4.51c-4.15,64.28-15.46,121.13-46.87,163.58    C1329.41,1618.1,1332.84,1627.17,1338.47,1630.43z" clip-rule="evenodd"/><path fill="#8fb7e1" fill-rule="evenodd" d="M1150.86,1581.24c0,3.11-2.19,6.89-4.88,8.45c-1.35,0.78-2.56,0.85-3.45,0.34l-131.43-75.88    c-0.88-0.51-1.43-1.6-1.43-3.16c0-3.11,2.19-6.89,4.88-8.44c1.35-0.78,2.57-0.85,3.45-0.34l131.43,75.88    C1150.32,1578.6,1150.86,1579.69,1150.86,1581.24z" clip-rule="evenodd"/><path fill="#8fb7e1" fill-rule="evenodd" d="M1136.24,1543.21v197.24c0,1.64,1.08,3.27,3.25,4.53c4.33,2.51,11.35,2.51,15.68,0    c2.17-1.25,3.25-2.88,3.25-4.53l0-196.97l-10.85,6.27L1136.24,1543.21z" clip-rule="evenodd"/></g><g><path fill="#f19820" fill-rule="evenodd" d="M1477.93,818.78c17.06-9.92,34.12-19.82,51.17-29.74c0.15-0.08,0.3-0.17,0.42-0.27l-51.17,29.73    C1478.22,818.61,1478.08,818.7,1477.93,818.78z" clip-rule="evenodd"/><polygon fill="#8fb7e1" fill-rule="evenodd" points="1478.36 818.5 1529.53 788.77 1581.28 756.43 1530.11 786.16" clip-rule="evenodd"/><path fill="#8fb7e1" fill-rule="evenodd" d="M1530.65,785.89c17.06-9.92,34.11-19.82,51.17-29.74c0.26-0.14,0.53-0.34,0.78-0.54l-51.17,29.73    C1531.17,785.55,1530.92,785.73,1530.65,785.89z" clip-rule="evenodd"/><path fill="#8fb7e1" fill-rule="evenodd" d="M1401.57,491.09c-17.06,9.92-16.6,12.02-33.67,21.94c1.84-1.06,4.02-1.05,6.34,0.3l33.66-21.94    C1405.57,490.04,1403.4,490.03,1401.57,491.09z" clip-rule="evenodd"/><path fill="#8fb7e1" fill-rule="evenodd" d="M1531.43,785.34l51.17-29.73c0.2-0.2,0.42-0.42,0.62-0.64l-51.17,29.74    C1531.86,784.92,1531.64,785.15,1531.43,785.34z" clip-rule="evenodd"/><path fill="#a1c6e9" fill-rule="evenodd" d="M1578.76,808.31c17.06-9.9,16.6-12.02,33.66-21.92c3.35-1.94,5.55-7.46,5.58-15.2l-33.66,21.92    C1584.3,800.86,1582.08,806.38,1578.76,808.31z" clip-rule="evenodd"/><path fill="#a1c6e9" fill-rule="evenodd" d="M1374.24,513.33c-6.56-3.77-11.88,2.88-11.91,14.89l-0.4,136.51c-0.03,12.01,5.25,24.79,11.79,28.56    l40.37,23.32c0.53,1.23,1.14,2.42,1.82,3.5l50.48,91.45c1.63,3.08,3.72,5.58,6,6.88c2.26,1.32,4.33,1.25,5.96,0.06l51.75-32.34    c0.47-0.2,0.89-0.48,1.32-0.82c0.21-0.19,0.42-0.41,0.62-0.62l40.37,23.3c6.54,3.77,11.88-2.88,11.91-14.9l0.38-136.5    c0.04-11.99-5.23-24.79-11.78-28.57L1374.24,513.33z" clip-rule="evenodd"/><path fill="#b8d9f2" fill-rule="evenodd" d="M1371.19,662.56c-0.03,11,4.81,22.73,10.8,26.2l11.24,6.47l25.78,14.9c0.48,1.15,1.05,2.23,1.68,3.22    l1.29,2.37l36.23,65.6l8.77,15.88c1.49,2.82,3.41,5.12,5.49,6.33c2.06,1.19,3.98,1.12,5.47,0.04l47.47-29.67    c0.41-0.17,0.84-0.41,1.2-0.75c0.2-0.17,0.38-0.35,0.58-0.57l5.76,3.32l31.24,18.05c6.02,3.48,10.91-2.64,10.94-13.65l0.07-28.23    l0.13-36.74l0.16-60.21c0.03-8.26-2.68-16.93-6.57-22.19c-1.31-1.76-2.74-3.14-4.23-4.02l-26.56-15.33l-71.73-41.41l-32.14-18.58    l-51.78-29.89c-6-3.46-10.88,2.65-10.91,13.67l-0.15,51.64l-0.1,36.74v0.01L1371.19,662.56z" clip-rule="evenodd"/><path fill="#a1c6e9" fill-rule="evenodd" d="M1407.9,491.39l198.7,114.7c6.54,3.8,11.82,16.59,11.79,28.59l-0.4,136.5l-33.66,21.92l0.38-136.5    c0.04-11.99-5.23-24.79-11.78-28.57l-198.7-114.72L1407.9,491.39z" clip-rule="evenodd"/><path fill="#b8d9f2" fill-rule="evenodd" d="M1458.21,781.32l8.77,15.88c1.49,2.82,3.41,5.12,5.49,6.33c2.06,1.19,3.98,1.12,5.47,0.04l47.47-29.67    c0.41-0.17,0.84-0.41,1.2-0.75c0.2-0.17,0.38-0.35,0.58-0.57l5.76,3.32l42.25-23.83l0.13-36.74L1458.21,781.32z" clip-rule="evenodd"/><path fill="#b8d9f2" fill-rule="evenodd" d="M1393.23,695.23l25.78,14.9c0.48,1.15,1.05,2.23,1.68,3.22l1.29,2.37l146.93-82.79    c-1.31-1.76-2.74-3.14-4.23-4.02l-26.56-15.33L1393.23,695.23z" clip-rule="evenodd"/><polygon fill="#b8d9f2" fill-rule="evenodd" points="1371.29 625.76 1466.38 572.18 1434.24 553.6 1371.39 589.02" clip-rule="evenodd"/><path fill="#fff" fill-rule="evenodd" d="M1405.66,614.44c-2.23-1.3-4.06-4.45-4.06-7.02c0.01-2.6,1.84-3.64,4.1-2.34l135.3,78.12    c2.26,1.29,4.08,4.45,4.06,7.04c0,2.58-1.83,3.64-4.08,2.33L1405.66,614.44L1405.66,614.44z M1405.59,644.88L1540.9,723    c2.24,1.29,4.07,0.26,4.09-2.33c0.01-2.58-1.8-5.75-4.06-7.04l-135.3-78.12c-2.26-1.29-4.1-0.26-4.1,2.33    C1401.52,640.42,1403.33,643.57,1405.59,644.88L1405.59,644.88z M1562.24,656.12L1384.69,553.6l-0.27,93.12    c-0.03,10.36,7.27,22.96,16.28,28.17l144.9,83.67c9.01,5.19,16.36,1.02,16.38-9.34L1562.24,656.12z" clip-rule="evenodd"/></g></svg>